<?xml version="1.0" encoding="utf-8"?>
<!-- Generator: Adobe Illustrator 18.1.1, SVG Export Plug-In . SVG Version: 6.00 Build 0)  -->
<!DOCTYPE svg PUBLIC "-//W3C//DTD SVG 1.1//EN" "http://www.w3.org/Graphics/SVG/1.1/DTD/svg11.dtd">
<svg version="1.1" xmlns="http://www.w3.org/2000/svg" xmlns:xlink="http://www.w3.org/1999/xlink" x="0px" y="0px"
	 viewBox="0 0 146 27" enable-background="new 0 0 146 27" xml:space="preserve">
<g id="Bkd">
</g>
<g id="Content">
	<g id="ic_x5F_menu">
	</g>
	<g id="ui_x5F_appBar_x5F_light_2">
	</g>
	<g>
		<g>
			<path fill="#FFFFFF" d="M124,10.8c-1.2-4-5.3-6.3-9.1-5.2C116,9.6,120.1,12,124,10.8z"/>
			<path fill="#FFFFFF" d="M124.1,8.8c1.8-2.8,1-6.6-1.8-8.4C120.5,3.3,121.3,7,124.1,8.8z"/>
			<path fill="#FFFFFF" d="M129.6,5.2c-3,0.3-5.2,3-4.9,6C127.7,10.8,129.9,8.2,129.6,5.2z"/>
			<path fill="#FFFFFF" d="M143.6,20.2c-0.5,0.6-1.3,1.2-2.2,1.2c-1.4,0-2.2-1.1-2.2-3.5c0-2.1,0.7-3.1,2.1-3.1c1,0,1.9,0.7,2.3,1.3
				V20.2z M145.5,22.1v-8.8h-1.9v0.9c-0.5-0.6-1.4-1.1-2.4-1.1c-2,0-3.8,1.6-3.8,4.9c0,3.7,1.7,5.2,3.7,5.2c1,0,1.8-0.5,2.5-1.1v0.2
				c0,2-0.6,2.8-3.3,2.9l0.6,1.4C144.4,26.4,145.5,25,145.5,22.1 M135.4,23v-5.6c0-2.9-1.2-4.4-3.5-4.4c-1,0-2,0.4-2.4,1.1v-0.9
				h-1.9V23h1.9v-5.7c0-1.6,0.7-2.5,2-2.5c1.3,0,2,0.7,2,2.7V23H135.4z M125,13.3h-1.9V23h1.9V13.3z M120.6,23v-5.6
				c0-2.9-1.2-4.4-3.5-4.4c-1,0-2,0.4-2.4,1.1v-0.9h-1.9V23h1.9v-5.7c0-1.6,0.7-2.5,2-2.5c1.3,0,2,0.7,2,2.7V23H120.6z M111.2,13.5
				c-0.4-0.3-0.9-0.4-1.6-0.4c-1,0-1.8,0.5-2.2,1.1v-0.9h-1.9V23h1.9v-5.6c0-1.7,0.7-2.5,1.9-2.5c0.6,0,1.1,0.1,1.5,0.4L111.2,13.5z
				 M101.2,20.2c-0.4,0.6-1.3,1.2-2.4,1.2c-1.3,0-1.9-0.6-1.9-1.6c0-0.9,0.8-1.4,2-1.4c1,0,1.7,0.2,2.2,0.4V20.2z M103.1,23v-6.7
				c0-2.2-1.5-3.3-3.7-3.3c-1.4,0-2.4,0.3-3.3,0.9l0.7,1.4c0.8-0.4,1.5-0.6,2.5-0.6c1.2,0,1.8,0.6,1.8,1.7v0.7
				c-0.5-0.2-1.3-0.4-2.2-0.4c-2.2,0-3.9,1-3.9,3.2c0,2.4,1.8,3.3,3.4,3.3c1.1,0,2-0.5,2.7-1.2v1H103.1z M91.8,17.2h-4.5
				c0.2-1.6,0.9-2.4,2.2-2.4C91.1,14.8,91.7,15.9,91.8,17.2 M93.7,17.9c0-2.6-1.3-4.9-4.1-4.9c-2.5,0-4.3,1.8-4.3,5.1
				c0,3.2,1.9,5.1,4.2,5.1c1.5,0,2.5-0.5,3.4-1.3l-1.1-1.2c-0.6,0.5-1.3,0.8-2.1,0.8c-1.2,0-2.2-0.8-2.4-2.7h6.4
				C93.7,18.6,93.7,18.3,93.7,17.9 M84.2,23v-1.9h-6.5V10h-1.9v13H84.2z M68.6,21.1c-0.4,0.2-0.9,0.4-1.4,0.4c-0.7,0-1-0.3-1-1.2V15
				h2.4v-1.7h-2.4V9.5l-1.9,1v2.8h-1.4V15h1.4v5.6c0,1.7,0.8,2.6,2.2,2.6c0.8,0,1.4-0.2,1.9-0.4L68.6,21.1z M61.2,23V9.5l-1.9,1V23
				H61.2z M56.7,23v-9.7h-1.9v5.7c0,1.6-0.7,2.5-2,2.5c-1.3,0-2-0.7-2-2.7v-5.5h-1.9v5.6c0,2.9,1.2,4.4,3.5,4.4c1,0,2-0.4,2.4-1.1
				V23H56.7z M45.1,18.3c0,2.1-0.7,3.1-2.1,3.1c-1,0-1.9-0.7-2.3-1.3V16c0.5-0.6,1.3-1.2,2.2-1.2C44.3,14.8,45.1,15.9,45.1,18.3
				 M47,18.3c0-3.7-1.6-5.2-3.7-5.2c-1,0-1.8,0.5-2.5,1.1v-0.9h-1.9v13.3l1.9-1v-3.5c0.5,0.6,1.5,1.1,2.4,1.1
				C45.2,23.2,47,21.6,47,18.3 M34.6,20.2c-0.4,0.6-1.3,1.2-2.4,1.2c-1.3,0-1.9-0.6-1.9-1.6c0-0.9,0.8-1.4,2-1.4
				c1,0,1.7,0.2,2.2,0.4V20.2z M36.4,23v-6.7c0-2.2-1.5-3.3-3.7-3.3c-1.4,0-2.4,0.3-3.3,0.9l0.7,1.4c0.8-0.4,1.5-0.6,2.5-0.6
				c1.2,0,1.8,0.6,1.8,1.7v0.7c-0.5-0.2-1.3-0.4-2.2-0.4c-2.2,0-3.9,1-3.9,3.2c0,2.4,1.8,3.3,3.4,3.3c1.1,0,2-0.5,2.7-1.2v1H36.4z
				 M27,21.1c-0.4,0.2-0.9,0.4-1.4,0.4c-0.7,0-1-0.3-1-1.2V15H27v-1.7h-2.4V9.5l-1.9,1v2.8h-1.4V15h1.4v5.6c0,1.7,0.8,2.6,2.2,2.6
				c0.8,0,1.4-0.2,1.9-0.4L27,21.1z M17.9,20.2c-0.4,0.6-1.3,1.2-2.4,1.2c-1.3,0-1.9-0.6-1.9-1.6c0-0.9,0.8-1.4,2-1.4
				c1,0,1.7,0.2,2.2,0.4V20.2z M19.8,23v-6.7c0-2.2-1.5-3.3-3.7-3.3c-1.4,0-2.4,0.3-3.3,0.9l0.7,1.4c0.8-0.4,1.5-0.6,2.5-0.6
				c1.2,0,1.8,0.6,1.8,1.7v0.7c-0.5-0.2-1.3-0.4-2.2-0.4c-2.2,0-3.9,1-3.9,3.2c0,2.4,1.8,3.3,3.4,3.3c1.1,0,2-0.5,2.7-1.2v1H19.8z
				 M10.5,20.7l-1.6-1.1c-0.7,1.1-1.5,1.6-2.9,1.6c-2.3,0-3.5-1.8-3.5-4.7c0-2.9,1.2-4.7,3.5-4.7c1.3,0,2,0.5,2.7,1.6l1.7-1.1
				C9.5,10.7,8.1,9.8,6,9.8c-3.4,0-5.5,2.8-5.5,6.7c0,3.9,2.1,6.7,5.5,6.7C8,23.2,9.5,22.3,10.5,20.7"/>
		</g>
	</g>
</g>
<g id="Nav_Panel" display="none">
</g>
<g id="Grid" display="none">
</g>
</svg>
