<?xml version="1.0" encoding="utf-8"?>
<!-- Generator: Adobe Illustrator 18.1.1, SVG Export Plug-In . SVG Version: 6.00 Build 0)  -->
<!DOCTYPE svg PUBLIC "-//W3C//DTD SVG 1.1//EN" "http://www.w3.org/Graphics/SVG/1.1/DTD/svg11.dtd">
<svg version="1.1" xmlns="http://www.w3.org/2000/svg" xmlns:xlink="http://www.w3.org/1999/xlink" x="0px" y="0px"
	 viewBox="0 0 56 41" enable-background="new 0 0 56 41" xml:space="preserve">
<g id="bkd">
	<rect x="8.3" y="150.7" fill="#EDEDEB" width="1200" height="1069.6"/>
	<rect x="8.3" y="221.7" fill="#CCCCCC" width="1200" height="58.6"/>
</g>
<g id="Collapsed" display="none">
	<path display="inline" fill="#FFFFFF" d="M430.2,880.8H146.3c-3.3,0-6-2.7-6-6V404.7c0-3.3,2.7-6,6-6h283.9c3.3,0,6,2.7,6,6v470.1
		C436.2,878.1,433.5,880.8,430.2,880.8z"/>
	<path display="inline" fill="#F15A29" d="M430.2,934.5H146.3c-3.3,0-6-2.7-6-6V725.1h295.9v203.5
		C436.2,931.8,433.5,934.5,430.2,934.5z"/>
	<path display="inline" fill="#FFFFFF" d="M750.2,1067.9H466.3c-3.3,0-6-2.7-6-6V404.7c0-3.3,2.7-6,6-6h283.9c3.3,0,6,2.7,6,6v657.3
		C756.2,1065.2,753.5,1067.9,750.2,1067.9z"/>
	<rect x="460.3" y="725.9" display="inline" fill="#73C940" width="295.9" height="225.7"/>
	<path display="inline" fill="#CCEBB9" d="M752.2,1087.9H464.3c-2.2,0-4-1.8-4-4V935.3h295.9v148.6
		C756.2,1086.1,754.4,1087.9,752.2,1087.9z"/>
	<path display="inline" fill="#FFFFFF" d="M1070.3,1031.5H786.3c-3.3,0-6-2.7-6-6V404.7c0-3.3,2.7-6,6-6h283.9c3.3,0,6,2.7,6,6
		v620.8C1076.3,1028.8,1073.6,1031.5,1070.3,1031.5z"/>
	<path display="inline" fill="#2BAAE1" d="M1070.3,1104.3H786.3c-3.3,0-6-2.7-6-6V777h295.9v321.3
		C1076.3,1101.6,1073.6,1104.3,1070.3,1104.3z"/>
	<path display="inline" fill="#CAE4F0" d="M1070.3,1138.7H786.3c-3.3,0-6-2.7-6-6V988.7h295.9v143.9
		C1076.3,1136,1073.6,1138.7,1070.3,1138.7z"/>
	<circle display="inline" fill="#F15A29" cx="289.3" cy="397.7" r="49"/>
	<circle display="inline" fill="#73C940" cx="608.3" cy="397.7" r="49"/>
	<circle display="inline" fill="#2BAAE1" cx="928.3" cy="397.7" r="49"/>
	<g display="inline">
		<g>
			<g>
				<path fill="#FFFFFF" d="M602.9,417.3h-17.3c-0.4,0-0.8-0.3-0.8-0.8v-31c0-0.4,0.3-0.8,0.8-0.8h4.9c0.4,0,0.8,0.3,0.8,0.8
					c0,0.4-0.3,0.8-0.8,0.8h-4.1v29.5h16.5c0.4,0,0.8,0.3,0.8,0.8C603.7,417,603.4,417.3,602.9,417.3z"/>
			</g>
			<g>
				<path fill="#FFFFFF" d="M631.1,417.3h-17.8c-0.4,0-0.8-0.3-0.8-0.8c0-0.4,0.3-0.8,0.8-0.8h17.1v-29.5h-4.1
					c-0.4,0-0.8-0.3-0.8-0.8c0-0.4,0.3-0.8,0.8-0.8h4.9c0.4,0,0.8,0.3,0.8,0.8v31C631.9,417,631.5,417.3,631.1,417.3z"/>
			</g>
			<g>
				<path fill="#FFFFFF" d="M608.4,416.5c-0.4,0-0.8-0.3-0.8-0.8v-30.5c0-0.4,0.3-0.8,0.8-0.8s0.8,0.3,0.8,0.8v30.5
					C609.1,416.2,608.8,416.5,608.4,416.5z"/>
			</g>
			<g>
				<path fill="#FFFFFF" d="M608.1,416.5c-0.4,0-0.7-0.3-0.8-0.7c0-0.1-1.2-5.5-16.5-5.5c-0.4,0-0.8-0.3-0.8-0.8v-30.5
					c0-0.4,0.3-0.8,0.8-0.8c17,0,18.3,6.6,18.3,6.8c0.1,0.4-0.2,0.8-0.6,0.9c-0.4,0.1-0.8-0.2-0.9-0.6c0,0-1.3-5.4-16-5.5v28.9
					c16.3,0.2,17.3,6.6,17.3,6.9C608.9,416.1,608.6,416.5,608.1,416.5C608.2,416.5,608.1,416.5,608.1,416.5z"/>
			</g>
			<g>
				<path fill="#FFFFFF" d="M608.6,416.5c-0.1,0-0.1,0-0.2,0c-0.4-0.1-0.7-0.5-0.6-0.9c0.1-0.3,1.6-6.6,17.3-6.8v-28.9
					c-14.3,0.2-16,5.6-16,5.6c-0.1,0.4-0.5,0.7-0.9,0.6c-0.4-0.1-0.7-0.5-0.6-0.9c0.1-0.3,1.9-6.8,18.3-6.8c0.4,0,0.8,0.3,0.8,0.8
					v30.5c0,0.4-0.3,0.8-0.8,0.8c-15,0-16.5,5.5-16.6,5.6C609.3,416.3,609,416.5,608.6,416.5z"/>
			</g>
			<g>
				<path fill="#FFFFFF" d="M612.9,391.3c-0.3,0-0.6-0.2-0.7-0.5c-0.2-0.4,0-0.8,0.4-1c2.3-1,5.2-1.6,8.7-2c0.4,0,0.8,0.3,0.9,0.7
					c0,0.4-0.3,0.8-0.7,0.9c-3.3,0.3-6,1-8.2,1.9C613.1,391.3,613,391.3,612.9,391.3z"/>
			</g>
			<g>
				<path fill="#FFFFFF" d="M612.9,397.5c-0.3,0-0.6-0.2-0.7-0.5c-0.2-0.4,0-0.8,0.4-1c2.3-1,5.2-1.6,8.7-2c0.4,0,0.8,0.3,0.9,0.7
					c0,0.4-0.3,0.8-0.7,0.9c-3.3,0.3-6,1-8.2,1.9C613.1,397.5,613,397.5,612.9,397.5z"/>
			</g>
			<g>
				<path fill="#FFFFFF" d="M612.9,403.7c-0.3,0-0.6-0.2-0.7-0.5c-0.2-0.4,0-0.8,0.4-1c2.3-1,5.2-1.6,8.7-2c0.4,0,0.8,0.3,0.9,0.7
					c0,0.4-0.3,0.8-0.7,0.9c-3.3,0.3-6,1-8.2,1.9C613.1,403.7,613,403.7,612.9,403.7z"/>
			</g>
			<g>
				<path fill="#FFFFFF" d="M603.8,391.3c-0.1,0-0.2,0-0.3-0.1c-2.2-0.9-5-1.5-8.2-1.9c-0.4,0-0.7-0.4-0.7-0.9
					c0-0.4,0.4-0.7,0.9-0.7c3.4,0.3,6.3,1,8.7,2c0.4,0.2,0.6,0.6,0.4,1C604.4,391.2,604.1,391.3,603.8,391.3z"/>
			</g>
			<g>
				<path fill="#FFFFFF" d="M603.8,397.5c-0.1,0-0.2,0-0.3-0.1c-2.2-0.9-5-1.5-8.2-1.9c-0.4,0-0.7-0.4-0.7-0.9
					c0-0.4,0.4-0.7,0.9-0.7c3.4,0.3,6.3,1,8.7,2c0.4,0.2,0.6,0.6,0.4,1C604.4,397.4,604.1,397.5,603.8,397.5z"/>
			</g>
			<g>
				<path fill="#FFFFFF" d="M603.8,403.7c-0.1,0-0.2,0-0.3-0.1c-2.2-0.9-5-1.5-8.2-1.9c-0.4,0-0.7-0.4-0.7-0.9
					c0-0.4,0.4-0.7,0.9-0.7c3.4,0.3,6.3,1,8.7,2c0.4,0.2,0.6,0.6,0.4,1C604.4,403.6,604.1,403.7,603.8,403.7z"/>
			</g>
		</g>
	</g>
	<g display="inline">
		<g>
			<g>
				<path fill="#FFFFFF" d="M280.7,389.1h-10.3c-0.4,0-0.8-0.3-0.8-0.8V378c0-0.4,0.3-0.8,0.8-0.8h10.3c0.4,0,0.8,0.3,0.8,0.8v10.3
					C281.5,388.7,281.1,389.1,280.7,389.1z M271.1,387.5h8.8v-8.8h-8.8V387.5z"/>
			</g>
			<g>
				<path fill="#FFFFFF" d="M280.7,404.6h-10.3c-0.4,0-0.8-0.3-0.8-0.8v-10.3c0-0.4,0.3-0.8,0.8-0.8h10.3c0.4,0,0.8,0.3,0.8,0.8
					v10.3C281.5,404.2,281.1,404.6,280.7,404.6z M271.1,403h8.8v-8.8h-8.8V403z"/>
			</g>
			<g>
				<path fill="#FFFFFF" d="M280.7,420.1h-10.3c-0.4,0-0.8-0.3-0.8-0.8V409c0-0.4,0.3-0.8,0.8-0.8h10.3c0.4,0,0.8,0.3,0.8,0.8v10.3
					C281.5,419.7,281.1,420.1,280.7,420.1z M271.1,418.5h8.8v-8.8h-8.8V418.5z"/>
			</g>
			<g>
				<path fill="#FFFFFF" d="M309.9,381.3h-24.3c-0.4,0-0.8-0.3-0.8-0.8s0.3-0.8,0.8-0.8h24.3c0.4,0,0.8,0.3,0.8,0.8
					S310.3,381.3,309.9,381.3z"/>
			</g>
			<g>
				<path fill="#FFFFFF" d="M299.6,386.5h-14c-0.4,0-0.8-0.3-0.8-0.8c0-0.4,0.3-0.8,0.8-0.8h14c0.4,0,0.8,0.3,0.8,0.8
					C300.3,386.1,300,386.5,299.6,386.5z"/>
			</g>
			<g>
				<path fill="#FFFFFF" d="M309.9,396.8h-24.3c-0.4,0-0.8-0.3-0.8-0.8s0.3-0.8,0.8-0.8h24.3c0.4,0,0.8,0.3,0.8,0.8
					S310.3,396.8,309.9,396.8z"/>
			</g>
			<g>
				<path fill="#FFFFFF" d="M299.6,402h-14c-0.4,0-0.8-0.3-0.8-0.8s0.3-0.8,0.8-0.8h14c0.4,0,0.8,0.3,0.8,0.8S300,402,299.6,402z"/>
			</g>
			<g>
				<path fill="#FFFFFF" d="M309.9,412.3h-24.3c-0.4,0-0.8-0.3-0.8-0.8s0.3-0.8,0.8-0.8h24.3c0.4,0,0.8,0.3,0.8,0.8
					S310.3,412.3,309.9,412.3z"/>
			</g>
			<g>
				<path fill="#FFFFFF" d="M299.6,417.5h-14c-0.4,0-0.8-0.3-0.8-0.8s0.3-0.8,0.8-0.8h14c0.4,0,0.8,0.3,0.8,0.8
					S300,417.5,299.6,417.5z"/>
			</g>
			<g>
				<path fill="#FFFFFF" d="M274,401c-0.2,0-0.4-0.1-0.5-0.2c-0.3-0.3-0.3-0.8,0-1.1l3.2-3.3c0.3-0.3,0.8-0.3,1.1,0
					c0.3,0.3,0.3,0.8,0,1.1l-3.2,3.3C274.4,400.9,274.2,401,274,401z"/>
			</g>
			<g>
				<path fill="#FFFFFF" d="M277.2,401c-0.2,0-0.4-0.1-0.6-0.2l-3.2-3.3c-0.3-0.3-0.3-0.8,0-1.1c0.3-0.3,0.8-0.3,1.1,0l3.2,3.3
					c0.3,0.3,0.3,0.8,0,1.1C277.5,400.9,277.3,401,277.2,401z"/>
			</g>
		</g>
	</g>
	<path display="inline" fill="none" stroke="#FFFFFF" stroke-miterlimit="10" d="M400.6,889.2H177.2c-2.2,0-4-1.8-4-4v-45.5
		c0-2.2,1.8-4,4-4h223.4c2.2,0,4,1.8,4,4v45.5C404.6,887.4,402.8,889.2,400.6,889.2z"/>
	<path display="inline" fill="none" stroke="#FFFFFF" stroke-miterlimit="10" d="M721.6,891.2H498.2c-2.2,0-4-1.8-4-4v-45.5
		c0-2.2,1.8-4,4-4h223.4c2.2,0,4,1.8,4,4v45.5C725.6,889.4,723.8,891.2,721.6,891.2z"/>
	<path display="inline" fill="none" stroke="#FFFFFF" stroke-miterlimit="10" d="M1041.6,944.2H818.2c-2.2,0-4-1.8-4-4v-45.5
		c0-2.2,1.8-4,4-4h223.4c2.2,0,4,1.8,4,4v45.5C1045.6,942.4,1043.8,944.2,1041.6,944.2z"/>
	
		<text transform="matrix(1 0 0 1 230.25 869.6985)" display="inline" fill="#FFFFFF" font-family="'OpenSans-Semibold'" font-size="16">VIEW LESSONS</text>
	
		<text transform="matrix(1 0 0 1 550.25 871.6985)" display="inline" fill="#FFFFFF" font-family="'OpenSans-Semibold'" font-size="16">VIEW LESSONS</text>
	
		<text transform="matrix(1 0 0 1 141.27 1191.204)" display="inline" fill="#2BAAE1" font-family="'OpenSans-Semibold'" font-size="20">VIEW INSTRUCTION</text>
	
		<text transform="matrix(1 0 0 1 870.25 924.6985)" display="inline" fill="#FFFFFF" font-family="'OpenSans-Semibold'" font-size="16">VIEW LESSONS</text>
	<rect x="158.3" y="474.7" display="inline" fill="none" width="260" height="229"/>
	<text transform="matrix(1 0 0 1 193.4556 488.3782)" display="inline"><tspan x="0" y="0" fill="#F15A29" font-family="'OpenSans-Semibold'" font-size="18">PRE-REQUISITE SKILLS</tspan><tspan x="-35.2" y="124" fill="#4D4D4D" font-family="'OpenSans-Light'" font-size="18">Know number names and the </tspan><tspan x="-35.2" y="148" fill="#4D4D4D" font-family="'OpenSans-Light'" font-size="18">count sequence; Count to tell </tspan><tspan x="-35.2" y="172" fill="#4D4D4D" font-family="'OpenSans-Light'" font-size="18">the number of objects; </tspan><tspan x="-35.2" y="196" fill="#4D4D4D" font-family="'OpenSans-Light'" font-size="18">Compare numbers</tspan></text>
	<rect x="478.3" y="474.7" display="inline" fill="none" width="260" height="250"/>
	<text transform="matrix(1 0 0 1 536.707 488.3782)" display="inline"><tspan x="0" y="0" fill="#73C940" font-family="'OpenSans-Semibold'" font-size="18">CURRENT SKILLS</tspan><tspan x="-58.5" y="124" fill="#4D4D4D" font-family="'OpenSans-Light'" font-size="18">Understand addition as putting </tspan><tspan x="-58.5" y="148" fill="#4D4D4D" font-family="'OpenSans-Light'" font-size="18">together and adding to, and </tspan><tspan x="-58.5" y="172" fill="#4D4D4D" font-family="'OpenSans-Light'" font-size="18">understand subtraction as </tspan><tspan x="-58.5" y="196" fill="#4D4D4D" font-family="'OpenSans-Light'" font-size="18">taking apart and taking from</tspan></text>
	<rect x="798.3" y="474.7" display="inline" fill="none" width="260" height="273"/>
	<text transform="matrix(1 0 0 1 858.0254 488.3782)" display="inline"><tspan x="0" y="0" fill="#2BAAE1" font-family="'OpenSans-Semibold'" font-size="18">GROWTH SKILLS</tspan><tspan x="-59.8" y="124" fill="#4D4D4D" font-family="'OpenSans-Light'" font-size="18">Represent and solve problems </tspan><tspan x="-59.8" y="148" fill="#4D4D4D" font-family="'OpenSans-Light'" font-size="18">involving addition and </tspan><tspan x="-59.8" y="172" fill="#4D4D4D" font-family="'OpenSans-Light'" font-size="18">subtraction; Understand and </tspan><tspan x="-59.8" y="196" fill="#4D4D4D" font-family="'OpenSans-Light'" font-size="18">apply properties of operations </tspan><tspan x="-59.8" y="220" fill="#4D4D4D" font-family="'OpenSans-Light'" font-size="18">and the relationship between </tspan><tspan x="-59.8" y="244" fill="#4D4D4D" font-family="'OpenSans-Light'" font-size="18">addition and subtraction</tspan></text>
	<path display="inline" fill="none" stroke="#F15A29" stroke-miterlimit="10" d="M381.6,562.7h-190c-3.3,0-6-2.7-6-6v-25
		c0-3.3,2.7-6,6-6h190c3.3,0,6,2.7,6,6v25C387.6,560,384.9,562.7,381.6,562.7z"/>
	
		<text transform="matrix(1 0 0 1 202.25 549.6985)" display="inline" fill="#F15A29" font-family="'OpenSans-Semibold'" font-size="14">Standards alignment</text>
	<path display="inline" fill="none" stroke="#73C940" stroke-miterlimit="10" d="M702.6,561.7h-190c-3.3,0-6-2.7-6-6v-25
		c0-3.3,2.7-6,6-6h190c3.3,0,6,2.7,6,6v25C708.6,559,705.9,561.7,702.6,561.7z"/>
	
		<text transform="matrix(1 0 0 1 523.25 548.6985)" display="inline" fill="#73C940" font-family="'OpenSans-Semibold'" font-size="14">Standards alignment</text>
	<path display="inline" fill="none" stroke="#2BAAE1" stroke-miterlimit="10" d="M1022.6,561.7h-190c-3.3,0-6-2.7-6-6v-25
		c0-3.3,2.7-6,6-6h190c3.3,0,6,2.7,6,6v25C1028.6,559,1025.9,561.7,1022.6,561.7z"/>
	
		<text transform="matrix(1 0 0 1 843.25 548.6985)" display="inline" fill="#2BAAE1" font-family="'OpenSans-Semibold'" font-size="14">Standards alignment</text>
	<path display="inline" fill="#B3B3B3" d="M1073.3,272.3H863.7c-2.2,0-4-1.8-4-4v-33.6c0-2.2,1.8-4,4-4h209.5c2.2,0,4,1.8,4,4v33.6
		C1077.3,270.5,1075.5,272.3,1073.3,272.3z"/>
	
		<text transform="matrix(1 0 0 1 909.5703 257.6985)" display="inline" fill="#FFFFFF" font-family="'OpenSans-Semibold'" font-size="14">pre-assessment</text>
	<path display="inline" fill="#FFFFFF" d="M922,417.6h11v-9.8h-11V417.6z M923.8,409.6h7.4v6.2h-7.4V409.6z M907.7,417.6h11v-9.8
		h-11V417.6z M909.5,409.6h7.4v6.2h-7.4V409.6z M922,403.6h11v-9.8h-11V403.6z M923.8,395.6h7.4v6.2h-7.4V395.6z M936.3,379.8v9.8
		h11v-9.8H936.3z M945.5,387.8h-7.4v-6.2h7.4V387.8z M936.3,417.6h11v-9.8h-11V417.6z M938.1,409.6h7.4v6.2h-7.4V409.6z
		 M936.3,403.6h11v-9.8h-11V403.6z M938.1,395.6h7.4v6.2h-7.4V395.6z"/>
	<rect x="479.3" y="750.7" display="inline" fill="none" width="258" height="62"/>
	<text transform="matrix(1 0 0 1 479.25 760.5784)" display="inline"><tspan x="0" y="0" fill="#FFFFFF" font-family="'OpenSans'" font-size="13">LESSONS</tspan><tspan x="0" y="20" fill="#FFFFFF" font-family="'OpenSans'" font-size="16">AchieveMath Level K</tspan><tspan x="0" y="40" fill="#FFFFFF" font-family="'OpenSans'" font-size="16">Lessons 15-24</tspan></text>
	<rect x="479.3" y="960.7" display="inline" fill="none" width="258" height="62"/>
	<text transform="matrix(1 0 0 1 479.25 970.5784)" display="inline"><tspan x="0" y="0" fill="#589C31" font-family="'OpenSans'" font-size="13">PERFORMANCE TASK</tspan><tspan x="0" y="20" fill="#589C31" font-family="'OpenSans'" font-size="16">Jelly Bean Fun</tspan></text>
	<rect x="798.3" y="802.7" display="inline" fill="none" width="258" height="62"/>
	<text transform="matrix(1 0 0 1 798.25 812.5784)" display="inline"><tspan x="0" y="0" fill="#FFFFFF" font-family="'OpenSans'" font-size="13">LESSONS</tspan><tspan x="0" y="20" fill="#FFFFFF" font-family="'OpenSans'" font-size="16">AchieveMath Level1</tspan><tspan x="0" y="40" fill="#FFFFFF" font-family="'OpenSans'" font-size="16">Lessons 1-11, 13, 15, 20</tspan></text>
	<rect x="160.3" y="750.7" display="inline" fill="none" width="258" height="62"/>
	<text transform="matrix(1 0 0 1 160.25 760.5784)" display="inline"><tspan x="0" y="0" fill="#FFFFFF" font-family="'OpenSans'" font-size="13">LESSONS</tspan><tspan x="0" y="20" fill="#FFFFFF" font-family="'OpenSans'" font-size="16">AchieveMath Level K</tspan><tspan x="0" y="40" fill="#FFFFFF" font-family="'OpenSans'" font-size="16">Lessons 1-12</tspan></text>
	<polyline display="inline" fill="#2BAAE1" points="356.1,1180.8 350.3,1186.7 344.4,1180.8 	"/>
	<text transform="matrix(1 0 0 1 140.25 1261.4382)" display="inline" fill="#B3B3B3" font-family="'OpenSans'" font-size="13">©2014 Catapult Learning • All Rights Reserved • Two Aquarium Drive • Camden, NJ 08103 • 800-841-8730</text>
	<rect x="8.3" y="130.7" display="inline" fill="#4D4D4D" width="1200" height="92.5"/>
	<rect x="272.6" y="168" display="inline" fill="none" width="90" height="23.7"/>
	
		<text transform="matrix(1 0 0 1 272.5833 187.0319)" display="inline" fill="#FFFFFF" font-family="'OpenSans'" font-size="25" letter-spacing="-1">HUB</text>
	
		<text transform="matrix(1 0 0 1 923.25 183.1985)" display="inline" fill="#FFFFFF" font-family="'OpenSans-Semibold'" font-size="14">ANDREW ORDOVER</text>
	
		<text transform="matrix(1 0 0 1 707.25 183.1985)" display="inline" fill="#FFFFFF" font-family="'OpenSans-Semibold'" font-size="14">VIEW ALL OBJECTIVES</text>
	<polyline display="inline" fill="#FFFFFF" points="1074.2,175.2 1069.3,180.2 1064.3,175.2 	"/>
	<g display="inline">
		<path fill="#3656B8" d="M166.6,190.1c-10.6,4-23.7-4-25.9-14.8C152.2,171.2,164.6,180.1,166.6,190.1z"/>
		<path fill="#90C543" d="M166.6,184.2c-9.2-7.3-8.6-19.2-4.2-23.8c5.3,3.7,7.8,8.8,7.6,15.2C169.9,178.7,169.8,182.1,166.6,184.2z"
			/>
		<path fill="#0CAFEC" d="M168.9,190.8c-0.6-8.8,6.3-16.9,14.1-16.7C185.1,181.4,176.6,191.6,168.9,190.8z"/>
	</g>
	
		<text transform="matrix(1 0 0 1 193.7495 187.1468)" display="inline" fill="#FFFFFF" font-family="'OpenSans-Semibold'" font-size="25.5846" letter-spacing="-1">Lesson</text>
	<path display="inline" fill="none" stroke="#589C31" stroke-miterlimit="10" d="M705.6,1054.7h-194c-2.2,0-4-1.8-4-4v-29
		c0-2.2,1.8-4,4-4h194c2.2,0,4,1.8,4,4v29C709.6,1052.9,707.8,1054.7,705.6,1054.7z"/>
	
		<text transform="matrix(1 0 0 1 520.25 1041.6985)" display="inline" fill="#589C31" font-family="'OpenSans-Semibold'" font-size="14">View performance task</text>
	<rect x="799.3" y="1014.7" display="inline" fill="none" width="258" height="62"/>
	<text transform="matrix(1 0 0 1 799.25 1024.5784)" display="inline"><tspan x="0" y="0" fill="#2187B3" font-family="'OpenSans'" font-size="13">PERFORMANCE TASK</tspan><tspan x="0" y="20" fill="#2187B3" font-family="'OpenSans'" font-size="16">The Class Play</tspan></text>
	<path display="inline" fill="none" stroke="#2187B3" stroke-miterlimit="10" d="M1025.6,1108.7h-194c-2.2,0-4-1.8-4-4v-29
		c0-2.2,1.8-4,4-4h194c2.2,0,4,1.8,4,4v29C1029.6,1106.9,1027.8,1108.7,1025.6,1108.7z"/>
	
		<text transform="matrix(1 0 0 1 840.25 1095.6985)" display="inline" fill="#2187B3" font-family="'OpenSans-Semibold'" font-size="14">View performance task</text>
	
		<text transform="matrix(1 0 0 1 137.6558 259.3719)" display="inline" fill="#CCCCCC" font-family="'OpenSans-Semibold'" font-size="18">Objective - 3.NBT.A</text>
</g>
<g id="Collapsed_Hover" display="none">
	<rect x="8.3" y="221.7" display="inline" fill="#73C940" width="1200" height="58.6"/>
	<path display="inline" fill="#FFFFFF" d="M430.2,880.8H146.3c-3.3,0-6-2.7-6-6V404.7c0-3.3,2.7-6,6-6h283.9c3.3,0,6,2.7,6,6v470.1
		C436.2,878.1,433.5,880.8,430.2,880.8z"/>
	<path display="inline" fill="#F15A29" d="M430.2,934.5H146.3c-3.3,0-6-2.7-6-6V725.1h295.9v203.5
		C436.2,931.8,433.5,934.5,430.2,934.5z"/>
	<path display="inline" fill="#FFFFFF" d="M750.2,1067.9H466.3c-3.3,0-6-2.7-6-6V404.7c0-3.3,2.7-6,6-6h283.9c3.3,0,6,2.7,6,6v657.3
		C756.2,1065.2,753.5,1067.9,750.2,1067.9z"/>
	<rect x="460.3" y="725.9" display="inline" fill="#73C940" width="295.9" height="225.7"/>
	<path display="inline" fill="#CCEBB9" d="M752.2,1087.9H464.3c-2.2,0-4-1.8-4-4V935.3h295.9v148.6
		C756.2,1086.1,754.4,1087.9,752.2,1087.9z"/>
	<path display="inline" fill="#FFFFFF" d="M1070.3,1031.5H786.3c-3.3,0-6-2.7-6-6V404.7c0-3.3,2.7-6,6-6h283.9c3.3,0,6,2.7,6,6
		v620.8C1076.3,1028.8,1073.6,1031.5,1070.3,1031.5z"/>
	<path display="inline" fill="#2BAAE1" d="M1070.3,1104.3H786.3c-3.3,0-6-2.7-6-6V777h295.9v321.3
		C1076.3,1101.6,1073.6,1104.3,1070.3,1104.3z"/>
	<path display="inline" fill="#CAE4F0" d="M1070.3,1138.7H786.3c-3.3,0-6-2.7-6-6V988.7h295.9v143.9
		C1076.3,1136,1073.6,1138.7,1070.3,1138.7z"/>
	<circle display="inline" fill="#F15A29" cx="289.3" cy="397.7" r="49"/>
	<circle display="inline" fill="#73C940" cx="608.3" cy="397.7" r="49"/>
	<circle display="inline" fill="#2BAAE1" cx="928.3" cy="397.7" r="49"/>
	<g display="inline">
		<g>
			<g>
				<path fill="#FFFFFF" d="M602.9,417.3h-17.3c-0.4,0-0.8-0.3-0.8-0.8v-31c0-0.4,0.3-0.8,0.8-0.8h4.9c0.4,0,0.8,0.3,0.8,0.8
					c0,0.4-0.3,0.8-0.8,0.8h-4.1v29.5h16.5c0.4,0,0.8,0.3,0.8,0.8C603.7,417,603.4,417.3,602.9,417.3z"/>
			</g>
			<g>
				<path fill="#FFFFFF" d="M631.1,417.3h-17.8c-0.4,0-0.8-0.3-0.8-0.8c0-0.4,0.3-0.8,0.8-0.8h17.1v-29.5h-4.1
					c-0.4,0-0.8-0.3-0.8-0.8c0-0.4,0.3-0.8,0.8-0.8h4.9c0.4,0,0.8,0.3,0.8,0.8v31C631.9,417,631.5,417.3,631.1,417.3z"/>
			</g>
			<g>
				<path fill="#FFFFFF" d="M608.4,416.5c-0.4,0-0.8-0.3-0.8-0.8v-30.5c0-0.4,0.3-0.8,0.8-0.8s0.8,0.3,0.8,0.8v30.5
					C609.1,416.2,608.8,416.5,608.4,416.5z"/>
			</g>
			<g>
				<path fill="#FFFFFF" d="M608.1,416.5c-0.4,0-0.7-0.3-0.8-0.7c0-0.1-1.2-5.5-16.5-5.5c-0.4,0-0.8-0.3-0.8-0.8v-30.5
					c0-0.4,0.3-0.8,0.8-0.8c17,0,18.3,6.6,18.3,6.8c0.1,0.4-0.2,0.8-0.6,0.9c-0.4,0.1-0.8-0.2-0.9-0.6c0,0-1.3-5.4-16-5.5v28.9
					c16.3,0.2,17.3,6.6,17.3,6.9C608.9,416.1,608.6,416.5,608.1,416.5C608.2,416.5,608.1,416.5,608.1,416.5z"/>
			</g>
			<g>
				<path fill="#FFFFFF" d="M608.6,416.5c-0.1,0-0.1,0-0.2,0c-0.4-0.1-0.7-0.5-0.6-0.9c0.1-0.3,1.6-6.6,17.3-6.8v-28.9
					c-14.3,0.2-16,5.6-16,5.6c-0.1,0.4-0.5,0.7-0.9,0.6c-0.4-0.1-0.7-0.5-0.6-0.9c0.1-0.3,1.9-6.8,18.3-6.8c0.4,0,0.8,0.3,0.8,0.8
					v30.5c0,0.4-0.3,0.8-0.8,0.8c-15,0-16.5,5.5-16.6,5.6C609.3,416.3,609,416.5,608.6,416.5z"/>
			</g>
			<g>
				<path fill="#FFFFFF" d="M612.9,391.3c-0.3,0-0.6-0.2-0.7-0.5c-0.2-0.4,0-0.8,0.4-1c2.3-1,5.2-1.6,8.7-2c0.4,0,0.8,0.3,0.9,0.7
					c0,0.4-0.3,0.8-0.7,0.9c-3.3,0.3-6,1-8.2,1.9C613.1,391.3,613,391.3,612.9,391.3z"/>
			</g>
			<g>
				<path fill="#FFFFFF" d="M612.9,397.5c-0.3,0-0.6-0.2-0.7-0.5c-0.2-0.4,0-0.8,0.4-1c2.3-1,5.2-1.6,8.7-2c0.4,0,0.8,0.3,0.9,0.7
					c0,0.4-0.3,0.8-0.7,0.9c-3.3,0.3-6,1-8.2,1.9C613.1,397.5,613,397.5,612.9,397.5z"/>
			</g>
			<g>
				<path fill="#FFFFFF" d="M612.9,403.7c-0.3,0-0.6-0.2-0.7-0.5c-0.2-0.4,0-0.8,0.4-1c2.3-1,5.2-1.6,8.7-2c0.4,0,0.8,0.3,0.9,0.7
					c0,0.4-0.3,0.8-0.7,0.9c-3.3,0.3-6,1-8.2,1.9C613.1,403.7,613,403.7,612.9,403.7z"/>
			</g>
			<g>
				<path fill="#FFFFFF" d="M603.8,391.3c-0.1,0-0.2,0-0.3-0.1c-2.2-0.9-5-1.5-8.2-1.9c-0.4,0-0.7-0.4-0.7-0.9
					c0-0.4,0.4-0.7,0.9-0.7c3.4,0.3,6.3,1,8.7,2c0.4,0.2,0.6,0.6,0.4,1C604.4,391.2,604.1,391.3,603.8,391.3z"/>
			</g>
			<g>
				<path fill="#FFFFFF" d="M603.8,397.5c-0.1,0-0.2,0-0.3-0.1c-2.2-0.9-5-1.5-8.2-1.9c-0.4,0-0.7-0.4-0.7-0.9
					c0-0.4,0.4-0.7,0.9-0.7c3.4,0.3,6.3,1,8.7,2c0.4,0.2,0.6,0.6,0.4,1C604.4,397.4,604.1,397.5,603.8,397.5z"/>
			</g>
			<g>
				<path fill="#FFFFFF" d="M603.8,403.7c-0.1,0-0.2,0-0.3-0.1c-2.2-0.9-5-1.5-8.2-1.9c-0.4,0-0.7-0.4-0.7-0.9
					c0-0.4,0.4-0.7,0.9-0.7c3.4,0.3,6.3,1,8.7,2c0.4,0.2,0.6,0.6,0.4,1C604.4,403.6,604.1,403.7,603.8,403.7z"/>
			</g>
		</g>
	</g>
	<g display="inline">
		<g>
			<g>
				<path fill="#FFFFFF" d="M280.7,389.1h-10.3c-0.4,0-0.8-0.3-0.8-0.8V378c0-0.4,0.3-0.8,0.8-0.8h10.3c0.4,0,0.8,0.3,0.8,0.8v10.3
					C281.5,388.7,281.1,389.1,280.7,389.1z M271.1,387.5h8.8v-8.8h-8.8V387.5z"/>
			</g>
			<g>
				<path fill="#FFFFFF" d="M280.7,404.6h-10.3c-0.4,0-0.8-0.3-0.8-0.8v-10.3c0-0.4,0.3-0.8,0.8-0.8h10.3c0.4,0,0.8,0.3,0.8,0.8
					v10.3C281.5,404.2,281.1,404.6,280.7,404.6z M271.1,403h8.8v-8.8h-8.8V403z"/>
			</g>
			<g>
				<path fill="#FFFFFF" d="M280.7,420.1h-10.3c-0.4,0-0.8-0.3-0.8-0.8V409c0-0.4,0.3-0.8,0.8-0.8h10.3c0.4,0,0.8,0.3,0.8,0.8v10.3
					C281.5,419.7,281.1,420.1,280.7,420.1z M271.1,418.5h8.8v-8.8h-8.8V418.5z"/>
			</g>
			<g>
				<path fill="#FFFFFF" d="M309.9,381.3h-24.3c-0.4,0-0.8-0.3-0.8-0.8s0.3-0.8,0.8-0.8h24.3c0.4,0,0.8,0.3,0.8,0.8
					S310.3,381.3,309.9,381.3z"/>
			</g>
			<g>
				<path fill="#FFFFFF" d="M299.6,386.5h-14c-0.4,0-0.8-0.3-0.8-0.8c0-0.4,0.3-0.8,0.8-0.8h14c0.4,0,0.8,0.3,0.8,0.8
					C300.3,386.1,300,386.5,299.6,386.5z"/>
			</g>
			<g>
				<path fill="#FFFFFF" d="M309.9,396.8h-24.3c-0.4,0-0.8-0.3-0.8-0.8s0.3-0.8,0.8-0.8h24.3c0.4,0,0.8,0.3,0.8,0.8
					S310.3,396.8,309.9,396.8z"/>
			</g>
			<g>
				<path fill="#FFFFFF" d="M299.6,402h-14c-0.4,0-0.8-0.3-0.8-0.8s0.3-0.8,0.8-0.8h14c0.4,0,0.8,0.3,0.8,0.8S300,402,299.6,402z"/>
			</g>
			<g>
				<path fill="#FFFFFF" d="M309.9,412.3h-24.3c-0.4,0-0.8-0.3-0.8-0.8s0.3-0.8,0.8-0.8h24.3c0.4,0,0.8,0.3,0.8,0.8
					S310.3,412.3,309.9,412.3z"/>
			</g>
			<g>
				<path fill="#FFFFFF" d="M299.6,417.5h-14c-0.4,0-0.8-0.3-0.8-0.8s0.3-0.8,0.8-0.8h14c0.4,0,0.8,0.3,0.8,0.8
					S300,417.5,299.6,417.5z"/>
			</g>
			<g>
				<path fill="#FFFFFF" d="M274,401c-0.2,0-0.4-0.1-0.5-0.2c-0.3-0.3-0.3-0.8,0-1.1l3.2-3.3c0.3-0.3,0.8-0.3,1.1,0
					c0.3,0.3,0.3,0.8,0,1.1l-3.2,3.3C274.4,400.9,274.2,401,274,401z"/>
			</g>
			<g>
				<path fill="#FFFFFF" d="M277.2,401c-0.2,0-0.4-0.1-0.6-0.2l-3.2-3.3c-0.3-0.3-0.3-0.8,0-1.1c0.3-0.3,0.8-0.3,1.1,0l3.2,3.3
					c0.3,0.3,0.3,0.8,0,1.1C277.5,400.9,277.3,401,277.2,401z"/>
			</g>
		</g>
	</g>
	<path display="inline" fill="none" stroke="#FFFFFF" stroke-miterlimit="10" d="M400.6,889.2H177.2c-2.2,0-4-1.8-4-4v-45.5
		c0-2.2,1.8-4,4-4h223.4c2.2,0,4,1.8,4,4v45.5C404.6,887.4,402.8,889.2,400.6,889.2z"/>
	<path display="inline" fill="none" stroke="#FFFFFF" stroke-miterlimit="10" d="M721.6,891.2H498.2c-2.2,0-4-1.8-4-4v-45.5
		c0-2.2,1.8-4,4-4h223.4c2.2,0,4,1.8,4,4v45.5C725.6,889.4,723.8,891.2,721.6,891.2z"/>
	<path display="inline" fill="none" stroke="#FFFFFF" stroke-miterlimit="10" d="M1041.6,944.2H818.2c-2.2,0-4-1.8-4-4v-45.5
		c0-2.2,1.8-4,4-4h223.4c2.2,0,4,1.8,4,4v45.5C1045.6,942.4,1043.8,944.2,1041.6,944.2z"/>
	
		<text transform="matrix(1 0 0 1 230.25 869.6985)" display="inline" fill="#FFFFFF" font-family="'OpenSans-Semibold'" font-size="16">VIEW LESSONS</text>
	
		<text transform="matrix(1 0 0 1 550.25 871.6985)" display="inline" fill="#FFFFFF" font-family="'OpenSans-Semibold'" font-size="16">VIEW LESSONS</text>
	
		<text transform="matrix(1 0 0 1 141.27 1191.204)" display="inline" fill="#2BAAE1" font-family="'OpenSans-Semibold'" font-size="20">VIEW INSTRUCTION</text>
	
		<text transform="matrix(1 0 0 1 870.25 924.6985)" display="inline" fill="#FFFFFF" font-family="'OpenSans-Semibold'" font-size="16">VIEW LESSONS</text>
	<rect x="158.3" y="474.7" display="inline" fill="none" width="260" height="229"/>
	<text transform="matrix(1 0 0 1 193.4556 488.3782)" display="inline"><tspan x="0" y="0" fill="#F15A29" font-family="'OpenSans-Semibold'" font-size="18">PRE-REQUISITE SKILLS</tspan><tspan x="-35.2" y="124" fill="#4D4D4D" font-family="'OpenSans-Light'" font-size="18">Know number names and the </tspan><tspan x="-35.2" y="148" fill="#4D4D4D" font-family="'OpenSans-Light'" font-size="18">count sequence; Count to tell </tspan><tspan x="-35.2" y="172" fill="#4D4D4D" font-family="'OpenSans-Light'" font-size="18">the number of objects; </tspan><tspan x="-35.2" y="196" fill="#4D4D4D" font-family="'OpenSans-Light'" font-size="18">Compare numbers</tspan></text>
	<rect x="478.3" y="474.7" display="inline" fill="none" width="260" height="250"/>
	<text transform="matrix(1 0 0 1 536.707 488.3782)" display="inline"><tspan x="0" y="0" fill="#73C940" font-family="'OpenSans-Semibold'" font-size="18">CURRENT SKILLS</tspan><tspan x="-58.5" y="124" fill="#4D4D4D" font-family="'OpenSans-Light'" font-size="18">Understand addition as putting </tspan><tspan x="-58.5" y="148" fill="#4D4D4D" font-family="'OpenSans-Light'" font-size="18">together and adding to, and </tspan><tspan x="-58.5" y="172" fill="#4D4D4D" font-family="'OpenSans-Light'" font-size="18">understand subtraction as </tspan><tspan x="-58.5" y="196" fill="#4D4D4D" font-family="'OpenSans-Light'" font-size="18">taking apart and taking from</tspan></text>
	<rect x="798.3" y="474.7" display="inline" fill="none" width="260" height="273"/>
	<text transform="matrix(1 0 0 1 858.0254 488.3782)" display="inline"><tspan x="0" y="0" fill="#2BAAE1" font-family="'OpenSans-Semibold'" font-size="18">GROWTH SKILLS</tspan><tspan x="-59.8" y="124" fill="#4D4D4D" font-family="'OpenSans-Light'" font-size="18">Represent and solve problems </tspan><tspan x="-59.8" y="148" fill="#4D4D4D" font-family="'OpenSans-Light'" font-size="18">involving addition and </tspan><tspan x="-59.8" y="172" fill="#4D4D4D" font-family="'OpenSans-Light'" font-size="18">subtraction; Understand and </tspan><tspan x="-59.8" y="196" fill="#4D4D4D" font-family="'OpenSans-Light'" font-size="18">apply properties of operations </tspan><tspan x="-59.8" y="220" fill="#4D4D4D" font-family="'OpenSans-Light'" font-size="18">and the relationship between </tspan><tspan x="-59.8" y="244" fill="#4D4D4D" font-family="'OpenSans-Light'" font-size="18">addition and subtraction</tspan></text>
	<path display="inline" fill="none" stroke="#F15A29" stroke-miterlimit="10" d="M381.6,562.7h-190c-3.3,0-6-2.7-6-6v-25
		c0-3.3,2.7-6,6-6h190c3.3,0,6,2.7,6,6v25C387.6,560,384.9,562.7,381.6,562.7z"/>
	
		<text transform="matrix(1 0 0 1 202.25 549.6985)" display="inline" fill="#F15A29" font-family="'OpenSans-Semibold'" font-size="14">Standards alignment</text>
	<path display="inline" fill="none" stroke="#73C940" stroke-miterlimit="10" d="M702.6,561.7h-190c-3.3,0-6-2.7-6-6v-25
		c0-3.3,2.7-6,6-6h190c3.3,0,6,2.7,6,6v25C708.6,559,705.9,561.7,702.6,561.7z"/>
	
		<text transform="matrix(1 0 0 1 523.25 548.6985)" display="inline" fill="#73C940" font-family="'OpenSans-Semibold'" font-size="14">Standards alignment</text>
	<path display="inline" fill="none" stroke="#2BAAE1" stroke-miterlimit="10" d="M1022.6,561.7h-190c-3.3,0-6-2.7-6-6v-25
		c0-3.3,2.7-6,6-6h190c3.3,0,6,2.7,6,6v25C1028.6,559,1025.9,561.7,1022.6,561.7z"/>
	
		<text transform="matrix(1 0 0 1 843.25 548.6985)" display="inline" fill="#2BAAE1" font-family="'OpenSans-Semibold'" font-size="14">Standards alignment</text>
	<path display="inline" fill="none" stroke="#FFFFFF" stroke-miterlimit="10" d="M1073.3,272.3H863.7c-2.2,0-4-1.8-4-4v-33.6
		c0-2.2,1.8-4,4-4h209.5c2.2,0,4,1.8,4,4v33.6C1077.3,270.5,1075.5,272.3,1073.3,272.3z"/>
	
		<text transform="matrix(1 0 0 1 909.5703 257.6985)" display="inline" fill="#FFFFFF" font-family="'OpenSans-Semibold'" font-size="14">pre-assessment</text>
	<path display="inline" fill="#FFFFFF" d="M922,417.6h11v-9.8h-11V417.6z M923.8,409.6h7.4v6.2h-7.4V409.6z M907.7,417.6h11v-9.8
		h-11V417.6z M909.5,409.6h7.4v6.2h-7.4V409.6z M922,403.6h11v-9.8h-11V403.6z M923.8,395.6h7.4v6.2h-7.4V395.6z M936.3,379.8v9.8
		h11v-9.8H936.3z M945.5,387.8h-7.4v-6.2h7.4V387.8z M936.3,417.6h11v-9.8h-11V417.6z M938.1,409.6h7.4v6.2h-7.4V409.6z
		 M936.3,403.6h11v-9.8h-11V403.6z M938.1,395.6h7.4v6.2h-7.4V395.6z"/>
	<rect x="479.3" y="750.7" display="inline" fill="none" width="258" height="62"/>
	<text transform="matrix(1 0 0 1 479.25 760.5784)" display="inline"><tspan x="0" y="0" fill="#FFFFFF" font-family="'OpenSans'" font-size="13">LESSONS</tspan><tspan x="0" y="20" fill="#FFFFFF" font-family="'OpenSans'" font-size="16">AchieveMath Level K</tspan><tspan x="0" y="40" fill="#FFFFFF" font-family="'OpenSans'" font-size="16">Lessons 15-24</tspan></text>
	<rect x="479.3" y="960.7" display="inline" fill="none" width="258" height="62"/>
	<text transform="matrix(1 0 0 1 479.25 970.5784)" display="inline"><tspan x="0" y="0" fill="#589C31" font-family="'OpenSans'" font-size="13">PERFORMANCE TASK</tspan><tspan x="0" y="20" fill="#589C31" font-family="'OpenSans'" font-size="16">Jelly Bean Fun</tspan></text>
	<rect x="798.3" y="802.7" display="inline" fill="none" width="258" height="62"/>
	<text transform="matrix(1 0 0 1 798.25 812.5784)" display="inline"><tspan x="0" y="0" fill="#FFFFFF" font-family="'OpenSans'" font-size="13">LESSONS</tspan><tspan x="0" y="20" fill="#FFFFFF" font-family="'OpenSans'" font-size="16">AchieveMath Level1</tspan><tspan x="0" y="40" fill="#FFFFFF" font-family="'OpenSans'" font-size="16">Lessons 1-11, 13, 15, 20</tspan></text>
	<rect x="160.3" y="750.7" display="inline" fill="none" width="258" height="62"/>
	<text transform="matrix(1 0 0 1 160.25 760.5784)" display="inline"><tspan x="0" y="0" fill="#FFFFFF" font-family="'OpenSans'" font-size="13">LESSONS</tspan><tspan x="0" y="20" fill="#FFFFFF" font-family="'OpenSans'" font-size="16">AchieveMath Level K</tspan><tspan x="0" y="40" fill="#FFFFFF" font-family="'OpenSans'" font-size="16">Lessons 1-12</tspan></text>
	<polyline display="inline" fill="#2BAAE1" points="356.1,1180.8 350.3,1186.7 344.4,1180.8 	"/>
	<text transform="matrix(1 0 0 1 140.25 1261.4382)" display="inline" fill="#B3B3B3" font-family="'OpenSans'" font-size="13">©2014 Catapult Learning • All Rights Reserved • Two Aquarium Drive • Camden, NJ 08103 • 800-841-8730</text>
	<rect x="8.3" y="130.7" display="inline" fill="#4D4D4D" width="1200" height="92.5"/>
	<rect x="272.6" y="168" display="inline" fill="none" width="90" height="23.7"/>
	
		<text transform="matrix(1 0 0 1 272.5833 187.0319)" display="inline" fill="#FFFFFF" font-family="'OpenSans'" font-size="25" letter-spacing="-1">HUB</text>
	
		<text transform="matrix(1 0 0 1 923.25 183.1985)" display="inline" fill="#FFFFFF" font-family="'OpenSans-Semibold'" font-size="14">ANDREW ORDOVER</text>
	
		<text transform="matrix(1 0 0 1 707.25 183.1985)" display="inline" fill="#FFFFFF" font-family="'OpenSans-Semibold'" font-size="14">VIEW ALL OBJECTIVES</text>
	<polyline display="inline" fill="#FFFFFF" points="1074.2,175.2 1069.3,180.2 1064.3,175.2 	"/>
	<g display="inline">
		<path fill="#3656B8" d="M166.6,190.1c-10.6,4-23.7-4-25.9-14.8C152.2,171.2,164.6,180.1,166.6,190.1z"/>
		<path fill="#90C543" d="M166.6,184.2c-9.2-7.3-8.6-19.2-4.2-23.8c5.3,3.7,7.8,8.8,7.6,15.2C169.9,178.7,169.8,182.1,166.6,184.2z"
			/>
		<path fill="#0CAFEC" d="M168.9,190.8c-0.6-8.8,6.3-16.9,14.1-16.7C185.1,181.4,176.6,191.6,168.9,190.8z"/>
	</g>
	
		<text transform="matrix(1 0 0 1 193.7495 187.1468)" display="inline" fill="#FFFFFF" font-family="'OpenSans-Semibold'" font-size="25.5846" letter-spacing="-1">Lesson</text>
	<path display="inline" fill="none" stroke="#589C31" stroke-miterlimit="10" d="M705.6,1054.7h-194c-2.2,0-4-1.8-4-4v-29
		c0-2.2,1.8-4,4-4h194c2.2,0,4,1.8,4,4v29C709.6,1052.9,707.8,1054.7,705.6,1054.7z"/>
	
		<text transform="matrix(1 0 0 1 520.25 1041.6985)" display="inline" fill="#589C31" font-family="'OpenSans-Semibold'" font-size="14">View performance task</text>
	<rect x="799.3" y="1014.7" display="inline" fill="none" width="258" height="62"/>
	<text transform="matrix(1 0 0 1 799.25 1024.5784)" display="inline"><tspan x="0" y="0" fill="#2187B3" font-family="'OpenSans'" font-size="13">PERFORMANCE TASK</tspan><tspan x="0" y="20" fill="#2187B3" font-family="'OpenSans'" font-size="16">The Class Play</tspan></text>
	<path display="inline" fill="none" stroke="#2187B3" stroke-miterlimit="10" d="M1025.6,1108.7h-194c-2.2,0-4-1.8-4-4v-29
		c0-2.2,1.8-4,4-4h194c2.2,0,4,1.8,4,4v29C1029.6,1106.9,1027.8,1108.7,1025.6,1108.7z"/>
	
		<text transform="matrix(1 0 0 1 840.25 1095.6985)" display="inline" fill="#2187B3" font-family="'OpenSans-Semibold'" font-size="14">View performance task</text>
	
		<text transform="matrix(1 0 0 1 210.6558 259.3719)" display="inline" fill="#FFFFFF" font-family="'OpenSans-Semibold'" font-size="18">Objective - 3.NBT.A</text>
	<path display="inline" fill="none" stroke="#FFFFFF" stroke-miterlimit="10" d="M187.3,268.4h-43c-2.2,0-4-1.8-4-4V240
		c0-2.2,1.8-4,4-4h43c2.2,0,4,1.8,4,4v24.5C191.3,266.6,189.4,268.4,187.3,268.4z"/>
	<path display="inline" fill="#FFFFFF" d="M166.7,258.4c-0.2,0.2-0.5,0.4-0.8,0.3c-0.3,0-0.6-0.1-0.8-0.3l-8.2-8.2
		c-0.2-0.2-0.4-0.5-0.4-0.8c0-0.3,0.1-0.6,0.4-0.8l1.2-1.2c0.2-0.2,0.5-0.4,0.8-0.4c0.3,0,0.6,0.1,0.8,0.4l6.2,6.2l6.1-6.2
		c0.2-0.2,0.5-0.4,0.8-0.4c0.3,0,0.6,0.1,0.8,0.4l1.2,1.2c0.2,0.2,0.4,0.5,0.4,0.8c0,0.3-0.1,0.6-0.3,0.8L166.7,258.4L166.7,258.4z"
		/>
</g>
<g id="Collapsed_Hover2" display="none">
	<rect x="8.3" y="221.7" display="inline" fill="#73C940" width="1200" height="58.6"/>
	<path display="inline" fill="#FFFFFF" d="M430.2,880.8H146.3c-3.3,0-6-2.7-6-6V404.7c0-3.3,2.7-6,6-6h283.9c3.3,0,6,2.7,6,6v470.1
		C436.2,878.1,433.5,880.8,430.2,880.8z"/>
	<path display="inline" fill="#F15A29" d="M430.2,934.5H146.3c-3.3,0-6-2.7-6-6V725.1h295.9v203.5
		C436.2,931.8,433.5,934.5,430.2,934.5z"/>
	<path display="inline" fill="#FFFFFF" d="M750.2,1067.9H466.3c-3.3,0-6-2.7-6-6V404.7c0-3.3,2.7-6,6-6h283.9c3.3,0,6,2.7,6,6v657.3
		C756.2,1065.2,753.5,1067.9,750.2,1067.9z"/>
	<rect x="460.3" y="725.9" display="inline" fill="#73C940" width="295.9" height="225.7"/>
	<path display="inline" fill="#CCEBB9" d="M752.2,1087.9H464.3c-2.2,0-4-1.8-4-4V935.3h295.9v148.6
		C756.2,1086.1,754.4,1087.9,752.2,1087.9z"/>
	<path display="inline" fill="#FFFFFF" d="M1070.3,1031.5H786.3c-3.3,0-6-2.7-6-6V404.7c0-3.3,2.7-6,6-6h283.9c3.3,0,6,2.7,6,6
		v620.8C1076.3,1028.8,1073.6,1031.5,1070.3,1031.5z"/>
	<path display="inline" fill="#2BAAE1" d="M1070.3,1104.3H786.3c-3.3,0-6-2.7-6-6V777h295.9v321.3
		C1076.3,1101.6,1073.6,1104.3,1070.3,1104.3z"/>
	<path display="inline" fill="#CAE4F0" d="M1070.3,1138.7H786.3c-3.3,0-6-2.7-6-6V988.7h295.9v143.9
		C1076.3,1136,1073.6,1138.7,1070.3,1138.7z"/>
	<circle display="inline" fill="#F15A29" cx="289.3" cy="397.7" r="49"/>
	<circle display="inline" fill="#73C940" cx="608.3" cy="397.7" r="49"/>
	<circle display="inline" fill="#2BAAE1" cx="928.3" cy="397.7" r="49"/>
	<g display="inline">
		<g>
			<g>
				<path fill="#FFFFFF" d="M602.9,417.3h-17.3c-0.4,0-0.8-0.3-0.8-0.8v-31c0-0.4,0.3-0.8,0.8-0.8h4.9c0.4,0,0.8,0.3,0.8,0.8
					c0,0.4-0.3,0.8-0.8,0.8h-4.1v29.5h16.5c0.4,0,0.8,0.3,0.8,0.8C603.7,417,603.4,417.3,602.9,417.3z"/>
			</g>
			<g>
				<path fill="#FFFFFF" d="M631.1,417.3h-17.8c-0.4,0-0.8-0.3-0.8-0.8c0-0.4,0.3-0.8,0.8-0.8h17.1v-29.5h-4.1
					c-0.4,0-0.8-0.3-0.8-0.8c0-0.4,0.3-0.8,0.8-0.8h4.9c0.4,0,0.8,0.3,0.8,0.8v31C631.9,417,631.5,417.3,631.1,417.3z"/>
			</g>
			<g>
				<path fill="#FFFFFF" d="M608.4,416.5c-0.4,0-0.8-0.3-0.8-0.8v-30.5c0-0.4,0.3-0.8,0.8-0.8s0.8,0.3,0.8,0.8v30.5
					C609.1,416.2,608.8,416.5,608.4,416.5z"/>
			</g>
			<g>
				<path fill="#FFFFFF" d="M608.1,416.5c-0.4,0-0.7-0.3-0.8-0.7c0-0.1-1.2-5.5-16.5-5.5c-0.4,0-0.8-0.3-0.8-0.8v-30.5
					c0-0.4,0.3-0.8,0.8-0.8c17,0,18.3,6.6,18.3,6.8c0.1,0.4-0.2,0.8-0.6,0.9c-0.4,0.1-0.8-0.2-0.9-0.6c0,0-1.3-5.4-16-5.5v28.9
					c16.3,0.2,17.3,6.6,17.3,6.9C608.9,416.1,608.6,416.5,608.1,416.5C608.2,416.5,608.1,416.5,608.1,416.5z"/>
			</g>
			<g>
				<path fill="#FFFFFF" d="M608.6,416.5c-0.1,0-0.1,0-0.2,0c-0.4-0.1-0.7-0.5-0.6-0.9c0.1-0.3,1.6-6.6,17.3-6.8v-28.9
					c-14.3,0.2-16,5.6-16,5.6c-0.1,0.4-0.5,0.7-0.9,0.6c-0.4-0.1-0.7-0.5-0.6-0.9c0.1-0.3,1.9-6.8,18.3-6.8c0.4,0,0.8,0.3,0.8,0.8
					v30.5c0,0.4-0.3,0.8-0.8,0.8c-15,0-16.5,5.5-16.6,5.6C609.3,416.3,609,416.5,608.6,416.5z"/>
			</g>
			<g>
				<path fill="#FFFFFF" d="M612.9,391.3c-0.3,0-0.6-0.2-0.7-0.5c-0.2-0.4,0-0.8,0.4-1c2.3-1,5.2-1.6,8.7-2c0.4,0,0.8,0.3,0.9,0.7
					c0,0.4-0.3,0.8-0.7,0.9c-3.3,0.3-6,1-8.2,1.9C613.1,391.3,613,391.3,612.9,391.3z"/>
			</g>
			<g>
				<path fill="#FFFFFF" d="M612.9,397.5c-0.3,0-0.6-0.2-0.7-0.5c-0.2-0.4,0-0.8,0.4-1c2.3-1,5.2-1.6,8.7-2c0.4,0,0.8,0.3,0.9,0.7
					c0,0.4-0.3,0.8-0.7,0.9c-3.3,0.3-6,1-8.2,1.9C613.1,397.5,613,397.5,612.9,397.5z"/>
			</g>
			<g>
				<path fill="#FFFFFF" d="M612.9,403.7c-0.3,0-0.6-0.2-0.7-0.5c-0.2-0.4,0-0.8,0.4-1c2.3-1,5.2-1.6,8.7-2c0.4,0,0.8,0.3,0.9,0.7
					c0,0.4-0.3,0.8-0.7,0.9c-3.3,0.3-6,1-8.2,1.9C613.1,403.7,613,403.7,612.9,403.7z"/>
			</g>
			<g>
				<path fill="#FFFFFF" d="M603.8,391.3c-0.1,0-0.2,0-0.3-0.1c-2.2-0.9-5-1.5-8.2-1.9c-0.4,0-0.7-0.4-0.7-0.9
					c0-0.4,0.4-0.7,0.9-0.7c3.4,0.3,6.3,1,8.7,2c0.4,0.2,0.6,0.6,0.4,1C604.4,391.2,604.1,391.3,603.8,391.3z"/>
			</g>
			<g>
				<path fill="#FFFFFF" d="M603.8,397.5c-0.1,0-0.2,0-0.3-0.1c-2.2-0.9-5-1.5-8.2-1.9c-0.4,0-0.7-0.4-0.7-0.9
					c0-0.4,0.4-0.7,0.9-0.7c3.4,0.3,6.3,1,8.7,2c0.4,0.2,0.6,0.6,0.4,1C604.4,397.4,604.1,397.5,603.8,397.5z"/>
			</g>
			<g>
				<path fill="#FFFFFF" d="M603.8,403.7c-0.1,0-0.2,0-0.3-0.1c-2.2-0.9-5-1.5-8.2-1.9c-0.4,0-0.7-0.4-0.7-0.9
					c0-0.4,0.4-0.7,0.9-0.7c3.4,0.3,6.3,1,8.7,2c0.4,0.2,0.6,0.6,0.4,1C604.4,403.6,604.1,403.7,603.8,403.7z"/>
			</g>
		</g>
	</g>
	<g display="inline">
		<g>
			<g>
				<path fill="#FFFFFF" d="M280.7,389.1h-10.3c-0.4,0-0.8-0.3-0.8-0.8V378c0-0.4,0.3-0.8,0.8-0.8h10.3c0.4,0,0.8,0.3,0.8,0.8v10.3
					C281.5,388.7,281.1,389.1,280.7,389.1z M271.1,387.5h8.8v-8.8h-8.8V387.5z"/>
			</g>
			<g>
				<path fill="#FFFFFF" d="M280.7,404.6h-10.3c-0.4,0-0.8-0.3-0.8-0.8v-10.3c0-0.4,0.3-0.8,0.8-0.8h10.3c0.4,0,0.8,0.3,0.8,0.8
					v10.3C281.5,404.2,281.1,404.6,280.7,404.6z M271.1,403h8.8v-8.8h-8.8V403z"/>
			</g>
			<g>
				<path fill="#FFFFFF" d="M280.7,420.1h-10.3c-0.4,0-0.8-0.3-0.8-0.8V409c0-0.4,0.3-0.8,0.8-0.8h10.3c0.4,0,0.8,0.3,0.8,0.8v10.3
					C281.5,419.7,281.1,420.1,280.7,420.1z M271.1,418.5h8.8v-8.8h-8.8V418.5z"/>
			</g>
			<g>
				<path fill="#FFFFFF" d="M309.9,381.3h-24.3c-0.4,0-0.8-0.3-0.8-0.8s0.3-0.8,0.8-0.8h24.3c0.4,0,0.8,0.3,0.8,0.8
					S310.3,381.3,309.9,381.3z"/>
			</g>
			<g>
				<path fill="#FFFFFF" d="M299.6,386.5h-14c-0.4,0-0.8-0.3-0.8-0.8c0-0.4,0.3-0.8,0.8-0.8h14c0.4,0,0.8,0.3,0.8,0.8
					C300.3,386.1,300,386.5,299.6,386.5z"/>
			</g>
			<g>
				<path fill="#FFFFFF" d="M309.9,396.8h-24.3c-0.4,0-0.8-0.3-0.8-0.8s0.3-0.8,0.8-0.8h24.3c0.4,0,0.8,0.3,0.8,0.8
					S310.3,396.8,309.9,396.8z"/>
			</g>
			<g>
				<path fill="#FFFFFF" d="M299.6,402h-14c-0.4,0-0.8-0.3-0.8-0.8s0.3-0.8,0.8-0.8h14c0.4,0,0.8,0.3,0.8,0.8S300,402,299.6,402z"/>
			</g>
			<g>
				<path fill="#FFFFFF" d="M309.9,412.3h-24.3c-0.4,0-0.8-0.3-0.8-0.8s0.3-0.8,0.8-0.8h24.3c0.4,0,0.8,0.3,0.8,0.8
					S310.3,412.3,309.9,412.3z"/>
			</g>
			<g>
				<path fill="#FFFFFF" d="M299.6,417.5h-14c-0.4,0-0.8-0.3-0.8-0.8s0.3-0.8,0.8-0.8h14c0.4,0,0.8,0.3,0.8,0.8
					S300,417.5,299.6,417.5z"/>
			</g>
			<g>
				<path fill="#FFFFFF" d="M274,401c-0.2,0-0.4-0.1-0.5-0.2c-0.3-0.3-0.3-0.8,0-1.1l3.2-3.3c0.3-0.3,0.8-0.3,1.1,0
					c0.3,0.3,0.3,0.8,0,1.1l-3.2,3.3C274.4,400.9,274.2,401,274,401z"/>
			</g>
			<g>
				<path fill="#FFFFFF" d="M277.2,401c-0.2,0-0.4-0.1-0.6-0.2l-3.2-3.3c-0.3-0.3-0.3-0.8,0-1.1c0.3-0.3,0.8-0.3,1.1,0l3.2,3.3
					c0.3,0.3,0.3,0.8,0,1.1C277.5,400.9,277.3,401,277.2,401z"/>
			</g>
		</g>
	</g>
	<path display="inline" fill="#FFFFFF" d="M400.6,889.2H177.2c-2.2,0-4-1.8-4-4v-45.5c0-2.2,1.8-4,4-4h223.4c2.2,0,4,1.8,4,4v45.5
		C404.6,887.4,402.8,889.2,400.6,889.2z"/>
	<path display="inline" fill="#FFFFFF" d="M721.6,891.2H498.2c-2.2,0-4-1.8-4-4v-45.5c0-2.2,1.8-4,4-4h223.4c2.2,0,4,1.8,4,4v45.5
		C725.6,889.4,723.8,891.2,721.6,891.2z"/>
	<path display="inline" fill="#FFFFFF" d="M1041.6,944.2H818.2c-2.2,0-4-1.8-4-4v-45.5c0-2.2,1.8-4,4-4h223.4c2.2,0,4,1.8,4,4v45.5
		C1045.6,942.4,1043.8,944.2,1041.6,944.2z"/>
	
		<text transform="matrix(1 0 0 1 230.25 869.6985)" display="inline" fill="#F15A29" font-family="'OpenSans-Semibold'" font-size="16">VIEW LESSONS</text>
	
		<text transform="matrix(1 0 0 1 550.25 871.6985)" display="inline" fill="#73C940" font-family="'OpenSans-Semibold'" font-size="16">VIEW LESSONS</text>
	
		<text transform="matrix(1 0 0 1 141.27 1191.204)" display="inline" fill="#2BAAE1" font-family="'OpenSans-Semibold'" font-size="20">VIEW INSTRUCTION</text>
	
		<text transform="matrix(1 0 0 1 870.25 924.6985)" display="inline" fill="#2BAAE1" font-family="'OpenSans-Semibold'" font-size="16">VIEW LESSONS</text>
	<rect x="158.3" y="474.7" display="inline" fill="none" width="260" height="229"/>
	<text transform="matrix(1 0 0 1 193.4556 488.3782)" display="inline"><tspan x="0" y="0" fill="#F15A29" font-family="'OpenSans-Semibold'" font-size="18">PRE-REQUISITE SKILLS</tspan><tspan x="-35.2" y="124" fill="#4D4D4D" font-family="'OpenSans-Light'" font-size="18">Know number names and the </tspan><tspan x="-35.2" y="148" fill="#4D4D4D" font-family="'OpenSans-Light'" font-size="18">count sequence; Count to tell </tspan><tspan x="-35.2" y="172" fill="#4D4D4D" font-family="'OpenSans-Light'" font-size="18">the number of objects; </tspan><tspan x="-35.2" y="196" fill="#4D4D4D" font-family="'OpenSans-Light'" font-size="18">Compare numbers</tspan></text>
	<rect x="478.3" y="474.7" display="inline" fill="none" width="260" height="250"/>
	<text transform="matrix(1 0 0 1 536.707 488.3782)" display="inline"><tspan x="0" y="0" fill="#73C940" font-family="'OpenSans-Semibold'" font-size="18">CURRENT SKILLS</tspan><tspan x="-58.5" y="124" fill="#4D4D4D" font-family="'OpenSans-Light'" font-size="18">Understand addition as putting </tspan><tspan x="-58.5" y="148" fill="#4D4D4D" font-family="'OpenSans-Light'" font-size="18">together and adding to, and </tspan><tspan x="-58.5" y="172" fill="#4D4D4D" font-family="'OpenSans-Light'" font-size="18">understand subtraction as </tspan><tspan x="-58.5" y="196" fill="#4D4D4D" font-family="'OpenSans-Light'" font-size="18">taking apart and taking from</tspan></text>
	<rect x="798.3" y="474.7" display="inline" fill="none" width="260" height="273"/>
	<text transform="matrix(1 0 0 1 858.0254 488.3782)" display="inline"><tspan x="0" y="0" fill="#2BAAE1" font-family="'OpenSans-Semibold'" font-size="18">GROWTH SKILLS</tspan><tspan x="-59.8" y="124" fill="#4D4D4D" font-family="'OpenSans-Light'" font-size="18">Represent and solve problems </tspan><tspan x="-59.8" y="148" fill="#4D4D4D" font-family="'OpenSans-Light'" font-size="18">involving addition and </tspan><tspan x="-59.8" y="172" fill="#4D4D4D" font-family="'OpenSans-Light'" font-size="18">subtraction; Understand and </tspan><tspan x="-59.8" y="196" fill="#4D4D4D" font-family="'OpenSans-Light'" font-size="18">apply properties of operations </tspan><tspan x="-59.8" y="220" fill="#4D4D4D" font-family="'OpenSans-Light'" font-size="18">and the relationship between </tspan><tspan x="-59.8" y="244" fill="#4D4D4D" font-family="'OpenSans-Light'" font-size="18">addition and subtraction</tspan></text>
	<path display="inline" fill="#F15A29" d="M381.6,562.7h-190c-3.3,0-6-2.7-6-6v-25c0-3.3,2.7-6,6-6h190c3.3,0,6,2.7,6,6v25
		C387.6,560,384.9,562.7,381.6,562.7z"/>
	
		<text transform="matrix(1 0 0 1 202.25 549.6985)" display="inline" fill="#FFFFFF" font-family="'OpenSans-Semibold'" font-size="14">Standards alignment</text>
	<path display="inline" fill="#73C940" d="M702.6,561.7h-190c-3.3,0-6-2.7-6-6v-25c0-3.3,2.7-6,6-6h190c3.3,0,6,2.7,6,6v25
		C708.6,559,705.9,561.7,702.6,561.7z"/>
	
		<text transform="matrix(1 0 0 1 523.25 548.6985)" display="inline" fill="#FFFFFF" font-family="'OpenSans-Semibold'" font-size="14">Standards alignment</text>
	<path display="inline" fill="#2BAAE1" d="M1022.6,561.7h-190c-3.3,0-6-2.7-6-6v-25c0-3.3,2.7-6,6-6h190c3.3,0,6,2.7,6,6v25
		C1028.6,559,1025.9,561.7,1022.6,561.7z"/>
	
		<text transform="matrix(1 0 0 1 843.25 548.6985)" display="inline" fill="#FFFFFF" font-family="'OpenSans-Semibold'" font-size="14">Standards alignment</text>
	<path display="inline" fill="#FFFFFF" d="M1073.3,272.3H863.7c-2.2,0-4-1.8-4-4v-33.6c0-2.2,1.8-4,4-4h209.5c2.2,0,4,1.8,4,4v33.6
		C1077.3,270.5,1075.5,272.3,1073.3,272.3z"/>
	
		<text transform="matrix(1 0 0 1 909.5703 257.6985)" display="inline" fill="#73C940" font-family="'OpenSans-Semibold'" font-size="14">pre-assessment</text>
	<path display="inline" fill="#FFFFFF" d="M922,417.6h11v-9.8h-11V417.6z M923.8,409.6h7.4v6.2h-7.4V409.6z M907.7,417.6h11v-9.8
		h-11V417.6z M909.5,409.6h7.4v6.2h-7.4V409.6z M922,403.6h11v-9.8h-11V403.6z M923.8,395.6h7.4v6.2h-7.4V395.6z M936.3,379.8v9.8
		h11v-9.8H936.3z M945.5,387.8h-7.4v-6.2h7.4V387.8z M936.3,417.6h11v-9.8h-11V417.6z M938.1,409.6h7.4v6.2h-7.4V409.6z
		 M936.3,403.6h11v-9.8h-11V403.6z M938.1,395.6h7.4v6.2h-7.4V395.6z"/>
	<rect x="479.3" y="750.7" display="inline" fill="none" width="258" height="62"/>
	<text transform="matrix(1 0 0 1 479.25 760.5784)" display="inline"><tspan x="0" y="0" fill="#FFFFFF" font-family="'OpenSans'" font-size="13">LESSONS</tspan><tspan x="0" y="20" fill="#FFFFFF" font-family="'OpenSans'" font-size="16">AchieveMath Level K</tspan><tspan x="0" y="40" fill="#FFFFFF" font-family="'OpenSans'" font-size="16">Lessons 15-24</tspan></text>
	<rect x="479.3" y="960.7" display="inline" fill="none" width="258" height="62"/>
	<text transform="matrix(1 0 0 1 479.25 970.5784)" display="inline"><tspan x="0" y="0" fill="#589C31" font-family="'OpenSans'" font-size="13">PERFORMANCE TASK</tspan><tspan x="0" y="20" fill="#589C31" font-family="'OpenSans'" font-size="16">Jelly Bean Fun</tspan></text>
	<rect x="798.3" y="802.7" display="inline" fill="none" width="258" height="62"/>
	<text transform="matrix(1 0 0 1 798.25 812.5784)" display="inline"><tspan x="0" y="0" fill="#FFFFFF" font-family="'OpenSans'" font-size="13">LESSONS</tspan><tspan x="0" y="20" fill="#FFFFFF" font-family="'OpenSans'" font-size="16">AchieveMath Level1</tspan><tspan x="0" y="40" fill="#FFFFFF" font-family="'OpenSans'" font-size="16">Lessons 1-11, 13, 15, 20</tspan></text>
	<rect x="160.3" y="750.7" display="inline" fill="none" width="258" height="62"/>
	<text transform="matrix(1 0 0 1 160.25 760.5784)" display="inline"><tspan x="0" y="0" fill="#FFFFFF" font-family="'OpenSans'" font-size="13">LESSONS</tspan><tspan x="0" y="20" fill="#FFFFFF" font-family="'OpenSans'" font-size="16">AchieveMath Level K</tspan><tspan x="0" y="40" fill="#FFFFFF" font-family="'OpenSans'" font-size="16">Lessons 1-12</tspan></text>
	<polyline display="inline" fill="#2BAAE1" points="356.1,1180.8 350.3,1186.7 344.4,1180.8 	"/>
	<text transform="matrix(1 0 0 1 140.25 1261.4382)" display="inline" fill="#B3B3B3" font-family="'OpenSans'" font-size="13">©2014 Catapult Learning • All Rights Reserved • Two Aquarium Drive • Camden, NJ 08103 • 800-841-8730</text>
	<rect x="8.3" y="130.7" display="inline" fill="#4D4D4D" width="1200" height="92.5"/>
	<rect x="272.6" y="168" display="inline" fill="none" width="90" height="23.7"/>
	
		<text transform="matrix(1 0 0 1 272.5833 187.0319)" display="inline" fill="#FFFFFF" font-family="'OpenSans'" font-size="25" letter-spacing="-1">HUB</text>
	
		<text transform="matrix(1 0 0 1 923.25 183.1985)" display="inline" fill="#FFFFFF" font-family="'OpenSans-Semibold'" font-size="14">ANDREW ORDOVER</text>
	
		<text transform="matrix(1 0 0 1 707.25 183.1985)" display="inline" fill="#FFFFFF" font-family="'OpenSans-Semibold'" font-size="14">VIEW ALL OBJECTIVES</text>
	<polyline display="inline" fill="#FFFFFF" points="1074.2,175.2 1069.3,180.2 1064.3,175.2 	"/>
	<g display="inline">
		<path fill="#3656B8" d="M166.6,190.1c-10.6,4-23.7-4-25.9-14.8C152.2,171.2,164.6,180.1,166.6,190.1z"/>
		<path fill="#90C543" d="M166.6,184.2c-9.2-7.3-8.6-19.2-4.2-23.8c5.3,3.7,7.8,8.8,7.6,15.2C169.9,178.7,169.8,182.1,166.6,184.2z"
			/>
		<path fill="#0CAFEC" d="M168.9,190.8c-0.6-8.8,6.3-16.9,14.1-16.7C185.1,181.4,176.6,191.6,168.9,190.8z"/>
	</g>
	
		<text transform="matrix(1 0 0 1 193.7495 187.1468)" display="inline" fill="#FFFFFF" font-family="'OpenSans-Semibold'" font-size="25.5846" letter-spacing="-1">Lesson</text>
	<path display="inline" fill="#73C940" d="M705.6,1054.7h-194c-2.2,0-4-1.8-4-4v-29c0-2.2,1.8-4,4-4h194c2.2,0,4,1.8,4,4v29
		C709.6,1052.9,707.8,1054.7,705.6,1054.7z"/>
	
		<text transform="matrix(1 0 0 1 520.25 1041.6985)" display="inline" fill="#FFFFFF" font-family="'OpenSans-Semibold'" font-size="14">View performance task</text>
	<rect x="799.3" y="1014.7" display="inline" fill="none" width="258" height="62"/>
	<text transform="matrix(1 0 0 1 799.25 1024.5784)" display="inline"><tspan x="0" y="0" fill="#2187B3" font-family="'OpenSans'" font-size="13">PERFORMANCE TASK</tspan><tspan x="0" y="20" fill="#2187B3" font-family="'OpenSans'" font-size="16">The Class Play</tspan></text>
	<path display="inline" fill="#2BAAE1" d="M1025.6,1108.7h-194c-2.2,0-4-1.8-4-4v-29c0-2.2,1.8-4,4-4h194c2.2,0,4,1.8,4,4v29
		C1029.6,1106.9,1027.8,1108.7,1025.6,1108.7z"/>
	
		<text transform="matrix(1 0 0 1 840.25 1095.6985)" display="inline" fill="#FFFFFF" font-family="'OpenSans-Semibold'" font-size="14">View performance task</text>
	
		<text transform="matrix(1 0 0 1 210.6558 259.3719)" display="inline" fill="#FFFFFF" font-family="'OpenSans-Semibold'" font-size="18">Objective - 3.NBT.A</text>
	<path display="inline" fill="#FFFFFF" d="M187.3,268.4h-43c-2.2,0-4-1.8-4-4V240c0-2.2,1.8-4,4-4h43c2.2,0,4,1.8,4,4v24.5
		C191.3,266.6,189.4,268.4,187.3,268.4z"/>
	<path display="inline" fill="#73C940" d="M166.7,258.4c-0.2,0.2-0.5,0.4-0.8,0.3c-0.3,0-0.6-0.1-0.8-0.3l-8.2-8.2
		c-0.2-0.2-0.4-0.5-0.4-0.8c0-0.3,0.1-0.6,0.4-0.8l1.2-1.2c0.2-0.2,0.5-0.4,0.8-0.4c0.3,0,0.6,0.1,0.8,0.4l6.2,6.2l6.1-6.2
		c0.2-0.2,0.5-0.4,0.8-0.4c0.3,0,0.6,0.1,0.8,0.4l1.2,1.2c0.2,0.2,0.4,0.5,0.4,0.8c0,0.3-0.1,0.6-0.3,0.8L166.7,258.4L166.7,258.4z"
		/>
</g>
<g id="Expanded">
	<rect x="8.3" y="260.7" fill="#EDEDEB" width="1200" height="1069.6"/>
	<rect x="8.3" y="221.7" fill="#F2F2F2" width="1200" height="122.8"/>
	<path fill="#FFFFFF" d="M430.2,990.8H146.3c-3.3,0-6-2.7-6-6V514.7c0-3.3,2.7-6,6-6h283.9c3.3,0,6,2.7,6,6v470.1
		C436.2,988.1,433.5,990.8,430.2,990.8z"/>
	<path fill="#F15A29" d="M430.2,1044.5H146.3c-3.3,0-6-2.7-6-6V835.1h295.9v203.5C436.2,1041.8,433.5,1044.5,430.2,1044.5z"/>
	<path fill="#FFFFFF" d="M750.2,1177.9H466.3c-3.3,0-6-2.7-6-6V514.7c0-3.3,2.7-6,6-6h283.9c3.3,0,6,2.7,6,6v657.2
		C756.2,1175.2,753.5,1177.9,750.2,1177.9z"/>
	<rect x="460.3" y="835.9" fill="#73C940" width="295.9" height="225.7"/>
	<path fill="#CCEBB9" d="M752.2,1197.9H464.3c-2.2,0-4-1.8-4-4v-148.6h295.9v148.6C756.2,1196.1,754.4,1197.9,752.2,1197.9z"/>
	<path fill="#FFFFFF" d="M1070.3,1141.5H786.3c-3.3,0-6-2.7-6-6V514.7c0-3.3,2.7-6,6-6h283.9c3.3,0,6,2.7,6,6v620.8
		C1076.3,1138.8,1073.6,1141.5,1070.3,1141.5z"/>
	<path fill="#2BAAE1" d="M1070.3,1214.3H786.3c-3.3,0-6-2.7-6-6V887h295.9v321.3C1076.3,1211.6,1073.6,1214.3,1070.3,1214.3z"/>
	<path fill="#CAE4F0" d="M1070.3,1248.7H786.3c-3.3,0-6-2.7-6-6v-143.9h295.9v143.9C1076.3,1246,1073.6,1248.7,1070.3,1248.7z"/>
	<circle fill="#F15A29" cx="289.3" cy="507.7" r="49"/>
	<circle fill="#73C940" cx="608.3" cy="507.7" r="49"/>
	<circle fill="#2BAAE1" cx="928.3" cy="507.7" r="49"/>
	<g>
		<g>
			<g>
				<path fill="#FFFFFF" d="M602.9,527.3h-17.3c-0.4,0-0.8-0.3-0.8-0.8v-31c0-0.4,0.3-0.8,0.8-0.8h4.9c0.4,0,0.8,0.3,0.8,0.8
					c0,0.4-0.3,0.8-0.8,0.8h-4.1v29.5h16.5c0.4,0,0.8,0.3,0.8,0.8S603.4,527.3,602.9,527.3z"/>
			</g>
			<g>
				<path fill="#FFFFFF" d="M631.1,527.3h-17.8c-0.4,0-0.8-0.3-0.8-0.8s0.3-0.8,0.8-0.8h17.1v-29.5h-4.1c-0.4,0-0.8-0.3-0.8-0.8
					c0-0.4,0.3-0.8,0.8-0.8h4.9c0.4,0,0.8,0.3,0.8,0.8v31C631.9,527,631.5,527.3,631.1,527.3z"/>
			</g>
			<g>
				<path fill="#FFFFFF" d="M608.4,526.5c-0.4,0-0.8-0.3-0.8-0.8v-30.5c0-0.4,0.3-0.8,0.8-0.8s0.8,0.3,0.8,0.8v30.5
					C609.1,526.2,608.8,526.5,608.4,526.5z"/>
			</g>
			<g>
				<path fill="#FFFFFF" d="M608.1,526.5c-0.4,0-0.7-0.3-0.8-0.7c0-0.1-1.2-5.5-16.5-5.5c-0.4,0-0.8-0.3-0.8-0.8v-30.5
					c0-0.4,0.3-0.8,0.8-0.8c17,0,18.3,6.6,18.3,6.8c0.1,0.4-0.2,0.8-0.6,0.9c-0.4,0.1-0.8-0.2-0.9-0.6c0,0-1.3-5.4-16-5.5v28.9
					c16.3,0.2,17.3,6.6,17.3,6.9C608.9,526.1,608.6,526.5,608.1,526.5C608.2,526.5,608.1,526.5,608.1,526.5z"/>
			</g>
			<g>
				<path fill="#FFFFFF" d="M608.6,526.5c-0.1,0-0.1,0-0.2,0c-0.4-0.1-0.7-0.5-0.6-0.9c0.1-0.3,1.6-6.6,17.3-6.8v-28.9
					c-14.3,0.2-16,5.6-16,5.6c-0.1,0.4-0.5,0.7-0.9,0.6c-0.4-0.1-0.7-0.5-0.6-0.9c0.1-0.3,1.9-6.8,18.3-6.8c0.4,0,0.8,0.3,0.8,0.8
					v30.5c0,0.4-0.3,0.8-0.8,0.8c-15,0-16.5,5.5-16.6,5.6C609.3,526.3,609,526.5,608.6,526.5z"/>
			</g>
			<g>
				<path fill="#FFFFFF" d="M612.9,501.3c-0.3,0-0.6-0.2-0.7-0.5c-0.2-0.4,0-0.8,0.4-1c2.3-1,5.2-1.6,8.7-2c0.4,0,0.8,0.3,0.9,0.7
					c0,0.4-0.3,0.8-0.7,0.9c-3.3,0.3-6,1-8.2,1.9C613.1,501.3,613,501.3,612.9,501.3z"/>
			</g>
			<g>
				<path fill="#FFFFFF" d="M612.9,507.5c-0.3,0-0.6-0.2-0.7-0.5c-0.2-0.4,0-0.8,0.4-1c2.3-1,5.2-1.6,8.7-2c0.4,0,0.8,0.3,0.9,0.7
					c0,0.4-0.3,0.8-0.7,0.9c-3.3,0.3-6,1-8.2,1.9C613.1,507.5,613,507.5,612.9,507.5z"/>
			</g>
			<g>
				<path fill="#FFFFFF" d="M612.9,513.7c-0.3,0-0.6-0.2-0.7-0.5c-0.2-0.4,0-0.8,0.4-1c2.3-1,5.2-1.6,8.7-2c0.4,0,0.8,0.3,0.9,0.7
					c0,0.4-0.3,0.8-0.7,0.9c-3.3,0.3-6,1-8.2,1.9C613.1,513.7,613,513.7,612.9,513.7z"/>
			</g>
			<g>
				<path fill="#FFFFFF" d="M603.8,501.3c-0.1,0-0.2,0-0.3-0.1c-2.2-0.9-5-1.5-8.2-1.9c-0.4,0-0.7-0.4-0.7-0.9
					c0-0.4,0.4-0.7,0.9-0.7c3.4,0.3,6.3,1,8.7,2c0.4,0.2,0.6,0.6,0.4,1C604.4,501.2,604.1,501.3,603.8,501.3z"/>
			</g>
			<g>
				<path fill="#FFFFFF" d="M603.8,507.5c-0.1,0-0.2,0-0.3-0.1c-2.2-0.9-5-1.5-8.2-1.9c-0.4,0-0.7-0.4-0.7-0.9
					c0-0.4,0.4-0.7,0.9-0.7c3.4,0.3,6.3,1,8.7,2c0.4,0.2,0.6,0.6,0.4,1C604.4,507.4,604.1,507.5,603.8,507.5z"/>
			</g>
			<g>
				<path fill="#FFFFFF" d="M603.8,513.7c-0.1,0-0.2,0-0.3-0.1c-2.2-0.9-5-1.5-8.2-1.9c-0.4,0-0.7-0.4-0.7-0.9
					c0-0.4,0.4-0.7,0.9-0.7c3.4,0.3,6.3,1,8.7,2c0.4,0.2,0.6,0.6,0.4,1C604.4,513.6,604.1,513.7,603.8,513.7z"/>
			</g>
		</g>
	</g>
	<g>
		<g>
			<g>
				<path fill="#FFFFFF" d="M280.7,499.1h-10.3c-0.4,0-0.8-0.3-0.8-0.8V488c0-0.4,0.3-0.8,0.8-0.8h10.3c0.4,0,0.8,0.3,0.8,0.8v10.3
					C281.5,498.7,281.1,499.1,280.7,499.1z M271.1,497.5h8.8v-8.8h-8.8V497.5z"/>
			</g>
			<g>
				<path fill="#FFFFFF" d="M280.7,514.6h-10.3c-0.4,0-0.8-0.3-0.8-0.8v-10.3c0-0.4,0.3-0.8,0.8-0.8h10.3c0.4,0,0.8,0.3,0.8,0.8
					v10.3C281.5,514.2,281.1,514.6,280.7,514.6z M271.1,513h8.8v-8.8h-8.8V513z"/>
			</g>
			<g>
				<path fill="#FFFFFF" d="M280.7,530.1h-10.3c-0.4,0-0.8-0.3-0.8-0.8V519c0-0.4,0.3-0.8,0.8-0.8h10.3c0.4,0,0.8,0.3,0.8,0.8v10.3
					C281.5,529.7,281.1,530.1,280.7,530.1z M271.1,528.5h8.8v-8.8h-8.8V528.5z"/>
			</g>
			<g>
				<path fill="#FFFFFF" d="M309.9,491.3h-24.3c-0.4,0-0.8-0.3-0.8-0.8s0.3-0.8,0.8-0.8h24.3c0.4,0,0.8,0.3,0.8,0.8
					S310.3,491.3,309.9,491.3z"/>
			</g>
			<g>
				<path fill="#FFFFFF" d="M299.6,496.5h-14c-0.4,0-0.8-0.3-0.8-0.8c0-0.4,0.3-0.8,0.8-0.8h14c0.4,0,0.8,0.3,0.8,0.8
					C300.3,496.1,300,496.5,299.6,496.5z"/>
			</g>
			<g>
				<path fill="#FFFFFF" d="M309.9,506.8h-24.3c-0.4,0-0.8-0.3-0.8-0.8s0.3-0.8,0.8-0.8h24.3c0.4,0,0.8,0.3,0.8,0.8
					S310.3,506.8,309.9,506.8z"/>
			</g>
			<g>
				<path fill="#FFFFFF" d="M299.6,512h-14c-0.4,0-0.8-0.3-0.8-0.8s0.3-0.8,0.8-0.8h14c0.4,0,0.8,0.3,0.8,0.8S300,512,299.6,512z"/>
			</g>
			<g>
				<path fill="#FFFFFF" d="M309.9,522.3h-24.3c-0.4,0-0.8-0.3-0.8-0.8s0.3-0.8,0.8-0.8h24.3c0.4,0,0.8,0.3,0.8,0.8
					S310.3,522.3,309.9,522.3z"/>
			</g>
			<g>
				<path fill="#FFFFFF" d="M299.6,527.5h-14c-0.4,0-0.8-0.3-0.8-0.8c0-0.4,0.3-0.8,0.8-0.8h14c0.4,0,0.8,0.3,0.8,0.8
					C300.3,527.2,300,527.5,299.6,527.5z"/>
			</g>
			<g>
				<path fill="#FFFFFF" d="M274,511c-0.2,0-0.4-0.1-0.5-0.2c-0.3-0.3-0.3-0.8,0-1.1l3.2-3.3c0.3-0.3,0.8-0.3,1.1,0
					c0.3,0.3,0.3,0.8,0,1.1l-3.2,3.3C274.4,510.9,274.2,511,274,511z"/>
			</g>
			<g>
				<path fill="#FFFFFF" d="M277.2,511c-0.2,0-0.4-0.1-0.6-0.2l-3.2-3.3c-0.3-0.3-0.3-0.8,0-1.1c0.3-0.3,0.8-0.3,1.1,0l3.2,3.3
					c0.3,0.3,0.3,0.8,0,1.1C277.5,510.9,277.3,511,277.2,511z"/>
			</g>
		</g>
	</g>
	<path fill="none" stroke="#FFFFFF" stroke-miterlimit="10" d="M400.6,999.2H177.2c-2.2,0-4-1.8-4-4v-45.5c0-2.2,1.8-4,4-4h223.4
		c2.2,0,4,1.8,4,4v45.5C404.6,997.4,402.8,999.2,400.6,999.2z"/>
	<path fill="none" stroke="#FFFFFF" stroke-miterlimit="10" d="M721.6,1001.2H498.2c-2.2,0-4-1.8-4-4v-45.5c0-2.2,1.8-4,4-4h223.4
		c2.2,0,4,1.8,4,4v45.5C725.6,999.4,723.8,1001.2,721.6,1001.2z"/>
	<path fill="none" stroke="#FFFFFF" stroke-miterlimit="10" d="M1041.6,1054.2H818.2c-2.2,0-4-1.8-4-4v-45.5c0-2.2,1.8-4,4-4h223.4
		c2.2,0,4,1.8,4,4v45.5C1045.6,1052.4,1043.8,1054.2,1041.6,1054.2z"/>
	<text transform="matrix(1 0 0 1 230.25 979.6985)" fill="#FFFFFF" font-family="'OpenSans-Semibold'" font-size="16">VIEW LESSONS</text>
	<text transform="matrix(1 0 0 1 550.25 981.6985)" fill="#FFFFFF" font-family="'OpenSans-Semibold'" font-size="16">VIEW LESSONS</text>
	<text transform="matrix(1 0 0 1 870.25 1034.6985)" fill="#FFFFFF" font-family="'OpenSans-Semibold'" font-size="16">VIEW LESSONS</text>
	<rect x="158.3" y="584.7" fill="none" width="260" height="229"/>
	<text transform="matrix(1 0 0 1 193.4556 598.3782)"><tspan x="0" y="0" fill="#F15A29" font-family="'OpenSans-Semibold'" font-size="18">PRE-REQUISITE SKILLS</tspan><tspan x="-35.2" y="124" fill="#4D4D4D" font-family="'OpenSans-Light'" font-size="18">Know number names and the </tspan><tspan x="-35.2" y="148" fill="#4D4D4D" font-family="'OpenSans-Light'" font-size="18">count sequence; Count to tell </tspan><tspan x="-35.2" y="172" fill="#4D4D4D" font-family="'OpenSans-Light'" font-size="18">the number of objects; </tspan><tspan x="-35.2" y="196" fill="#4D4D4D" font-family="'OpenSans-Light'" font-size="18">Compare numbers</tspan></text>
	<rect x="478.3" y="584.7" fill="none" width="260" height="250"/>
	<text transform="matrix(1 0 0 1 536.707 598.3782)"><tspan x="0" y="0" fill="#73C940" font-family="'OpenSans-Semibold'" font-size="18">CURRENT SKILLS</tspan><tspan x="-58.5" y="124" fill="#4D4D4D" font-family="'OpenSans-Light'" font-size="18">Understand addition as putting </tspan><tspan x="-58.5" y="148" fill="#4D4D4D" font-family="'OpenSans-Light'" font-size="18">together and adding to, and </tspan><tspan x="-58.5" y="172" fill="#4D4D4D" font-family="'OpenSans-Light'" font-size="18">understand subtraction as </tspan><tspan x="-58.5" y="196" fill="#4D4D4D" font-family="'OpenSans-Light'" font-size="18">taking apart and taking from</tspan></text>
	<rect x="798.3" y="584.7" fill="none" width="260" height="273"/>
	<text transform="matrix(1 0 0 1 858.0254 598.3782)"><tspan x="0" y="0" fill="#2BAAE1" font-family="'OpenSans-Semibold'" font-size="18">GROWTH SKILLS</tspan><tspan x="-59.8" y="124" fill="#4D4D4D" font-family="'OpenSans-Light'" font-size="18">Represent and solve problems </tspan><tspan x="-59.8" y="148" fill="#4D4D4D" font-family="'OpenSans-Light'" font-size="18">involving addition and </tspan><tspan x="-59.8" y="172" fill="#4D4D4D" font-family="'OpenSans-Light'" font-size="18">subtraction; Understand and </tspan><tspan x="-59.8" y="196" fill="#4D4D4D" font-family="'OpenSans-Light'" font-size="18">apply properties of operations </tspan><tspan x="-59.8" y="220" fill="#4D4D4D" font-family="'OpenSans-Light'" font-size="18">and the relationship between </tspan><tspan x="-59.8" y="244" fill="#4D4D4D" font-family="'OpenSans-Light'" font-size="18">addition and subtraction</tspan></text>
	<path fill="none" stroke="#F15A29" stroke-miterlimit="10" d="M383.6,672.7h-194c-2.2,0-4-1.8-4-4v-29c0-2.2,1.8-4,4-4h194
		c2.2,0,4,1.8,4,4v29C387.6,670.9,385.8,672.7,383.6,672.7z"/>
	<text transform="matrix(1 0 0 1 202.25 659.6985)" fill="#F15A29" font-family="'OpenSans-Semibold'" font-size="14">Standards alignment</text>
	<path fill="none" stroke="#73C940" stroke-miterlimit="10" d="M704.6,671.7h-194c-2.2,0-4-1.8-4-4v-29c0-2.2,1.8-4,4-4h194
		c2.2,0,4,1.8,4,4v29C708.6,669.9,706.8,671.7,704.6,671.7z"/>
	<text transform="matrix(1 0 0 1 523.25 658.6985)" fill="#73C940" font-family="'OpenSans-Semibold'" font-size="14">Standards alignment</text>
	<path fill="none" stroke="#2BAAE1" stroke-miterlimit="10" d="M1024.6,671.7h-194c-2.2,0-4-1.8-4-4v-29c0-2.2,1.8-4,4-4h194
		c2.2,0,4,1.8,4,4v29C1028.6,669.9,1026.8,671.7,1024.6,671.7z"/>
	<text transform="matrix(1 0 0 1 843.25 658.6985)" fill="#2BAAE1" font-family="'OpenSans-Semibold'" font-size="14">Standards alignment</text>
	<path fill="none" stroke="#5BC3F0" stroke-miterlimit="10" d="M833.3,412.3H623.7c-2.2,0-4-1.8-4-4v-33.6c0-2.2,1.8-4,4-4h209.5
		c2.2,0,4,1.8,4,4v33.6C837.3,410.5,835.5,412.3,833.3,412.3z"/>
	<text transform="matrix(1 0 0 1 669.5703 397.6985)" fill="#2BAAE1" font-family="'OpenSans-Semibold'" font-size="14">pre-assessment</text>
	<path fill="none" stroke="#5BC3F0" stroke-miterlimit="10" d="M583.3,412.3H373.7c-2.2,0-4-1.8-4-4v-33.6c0-2.2,1.8-4,4-4h209.5
		c2.2,0,4,1.8,4,4v33.6C587.3,410.5,585.5,412.3,583.3,412.3z"/>
	<text transform="matrix(1 0 0 1 412.7891 397.6985)" fill="#2BAAE1" font-family="'OpenSans-Semibold'" font-size="14">VIEW INSTRUCTION</text>
	<path fill="#FFFFFF" d="M922,527.6h11v-9.8h-11V527.6z M923.8,519.6h7.4v6.2h-7.4V519.6z M907.7,527.6h11v-9.8h-11V527.6z
		 M909.5,519.6h7.4v6.2h-7.4V519.6z M922,513.6h11v-9.8h-11V513.6z M923.8,505.6h7.4v6.2h-7.4V505.6z M936.3,489.8v9.8h11v-9.8
		H936.3z M945.5,497.8h-7.4v-6.2h7.4V497.8z M936.3,527.6h11v-9.8h-11V527.6z M938.1,519.6h7.4v6.2h-7.4V519.6z M936.3,513.6h11
		v-9.8h-11V513.6z M938.1,505.6h7.4v6.2h-7.4V505.6z"/>
	<rect x="479.3" y="860.7" fill="none" width="258" height="62"/>
	<text transform="matrix(1 0 0 1 479.25 870.5784)"><tspan x="0" y="0" fill="#FFFFFF" font-family="'OpenSans'" font-size="13">LESSONS</tspan><tspan x="0" y="20" fill="#FFFFFF" font-family="'OpenSans'" font-size="16">AchieveMath Level K</tspan><tspan x="0" y="40" fill="#FFFFFF" font-family="'OpenSans'" font-size="16">Lessons 15-24</tspan></text>
	<rect x="479.3" y="1070.7" fill="none" width="258" height="62"/>
	<text transform="matrix(1 0 0 1 479.25 1080.5784)"><tspan x="0" y="0" fill="#589C31" font-family="'OpenSans'" font-size="13">PERFORMANCE TASK</tspan><tspan x="0" y="20" fill="#589C31" font-family="'OpenSans'" font-size="16">Jelly Bean Fun</tspan></text>
	<rect x="798.3" y="912.7" fill="none" width="258" height="62"/>
	<text transform="matrix(1 0 0 1 798.25 922.5784)"><tspan x="0" y="0" fill="#FFFFFF" font-family="'OpenSans'" font-size="13">LESSONS</tspan><tspan x="0" y="20" fill="#FFFFFF" font-family="'OpenSans'" font-size="16">AchieveMath Level1</tspan><tspan x="0" y="40" fill="#FFFFFF" font-family="'OpenSans'" font-size="16">Lessons 1-11, 13, 15, 20</tspan></text>
	<rect x="160.3" y="860.7" fill="none" width="258" height="62"/>
	<text transform="matrix(1 0 0 1 160.25 870.5784)"><tspan x="0" y="0" fill="#FFFFFF" font-family="'OpenSans'" font-size="13">LESSONS</tspan><tspan x="0" y="20" fill="#FFFFFF" font-family="'OpenSans'" font-size="16">AchieveMath Level K</tspan><tspan x="0" y="40" fill="#FFFFFF" font-family="'OpenSans'" font-size="16">Lessons 1-12</tspan></text>
	<rect x="8.3" y="130.7" fill="#4D4D4D" width="1200" height="92.5"/>
	<rect x="100.8" y="-32.1" fill="#4D4D4D" width="908.2" height="70"/>
	<rect x="272.6" y="168" fill="none" width="90" height="23.7"/>
	<text transform="matrix(1 0 0 1 272.5833 187.0319)" fill="#FFFFFF" font-family="'OpenSans'" font-size="25" letter-spacing="-1">HUB</text>
	<text transform="matrix(1 0 0 1 923.25 183.1985)" fill="#FFFFFF" font-family="'OpenSans-Semibold'" font-size="14">ANDREW ORDOVER</text>
	<text transform="matrix(1 0 0 1 707.25 183.1985)" fill="#FFFFFF" font-family="'OpenSans-Semibold'" font-size="14">VIEW ALL OBJECTIVES</text>
	<polyline fill="#FFFFFF" points="1074.2,175.2 1069.3,180.2 1064.3,175.2 	"/>
	<g>
		<path fill="#FFFFFF" d="M34,39.2C20.2,44.3,3.2,33.9,0.3,19.9C15.3,14.6,31.4,26.2,34,39.2z"/>
		<path fill="#FFFFFF" d="M33.9,31.4c-12-9.5-11.2-25-5.5-30.9c6.9,4.8,10.2,11.5,9.9,19.8C38.2,24.3,38.1,28.8,33.9,31.4z"/>
		<path fill="#FFFFFF" d="M36.9,40.1c-0.7-11.4,8.2-22,18.3-21.7C58,27.8,46.9,41,36.9,40.1z"/>
	</g>
	
		<text transform="matrix(1 0 0 1 193.7495 187.1468)" fill="#FFFFFF" font-family="'OpenSans-Semibold'" font-size="25.5846" letter-spacing="-1">Lesson</text>
	<path fill="none" stroke="#589C31" stroke-miterlimit="10" d="M705.6,1164.7h-194c-2.2,0-4-1.8-4-4v-29c0-2.2,1.8-4,4-4h194
		c2.2,0,4,1.8,4,4v29C709.6,1162.9,707.8,1164.7,705.6,1164.7z"/>
	<text transform="matrix(1 0 0 1 520.25 1151.6985)" fill="#589C31" font-family="'OpenSans-Semibold'" font-size="14">View performance task</text>
	<rect x="799.3" y="1124.7" fill="none" width="258" height="62"/>
	<text transform="matrix(1 0 0 1 799.25 1134.5784)"><tspan x="0" y="0" fill="#2187B3" font-family="'OpenSans'" font-size="13">PERFORMANCE TASK</tspan><tspan x="0" y="20" fill="#2187B3" font-family="'OpenSans'" font-size="16">The Class Play</tspan></text>
	<path fill="none" stroke="#2187B3" stroke-miterlimit="10" d="M1025.6,1218.7h-194c-2.2,0-4-1.8-4-4v-29c0-2.2,1.8-4,4-4h194
		c2.2,0,4,1.8,4,4v29C1029.6,1216.9,1027.8,1218.7,1025.6,1218.7z"/>
	<text transform="matrix(1 0 0 1 840.25 1205.6985)" fill="#2187B3" font-family="'OpenSans-Semibold'" font-size="14">View performance task</text>
	<rect x="218.3" y="272.7" fill="none" width="779" height="74"/>
	<text transform="matrix(1 0 0 1 252.7046 289.4182)"><tspan x="0" y="0" fill="#4D4D4D" font-family="'OpenSans-Light'" font-size="22">Understand addition as putting together and adding to, and understand </tspan><tspan x="142.8" y="26" fill="#4D4D4D" font-family="'OpenSans-Light'" font-size="22">subtraction as taking apart and taking from</tspan></text>
	<text transform="matrix(1 0 0 1 517.6558 263.3719)" fill="#4D4D4D" font-family="'OpenSans-Semibold'" font-size="18">Objective - 3.NBT.A</text>
	<text transform="matrix(1 0 0 1 318.8013 1402.6985)" font-family="'MyriadPro-Regular'" font-size="15">(INSTRUCTIONS STAY THE SAME AS CURRENTY IMPLEMENTED IN THIS SPACE.)</text>
</g>
<g id="Grid" display="none">
</g>
</svg>
